{
.appVersion = "895";
copyright = "Copyright 2016 Google Inc. All Rights Reserved.";
customParameters = (
{
name = description;
value = "Designed by Monotype design team.";
},
{
name = license;
value = "This Font Software is licensed under the SIL Open Font License, Version 1.1. This Font Software is distributed on an \"AS IS\" BASIS, WITHOUT WARRANTIES OR CONDITIONS OF ANY KIND, either express or implied. See the SIL Open Font License for the specific language, permissions and limitations governing your use of this Font Software.";
},
{
name = licenseURL;
value = "http://scripts.sil.org/OFL";
},
{
name = vendorID;
value = GOOG;
},
{
name = trademark;
value = "Noto is a trademark of Google Inc.";
},
{
name = fsType;
value = (
);
},
{
name = panose;
value = (
2,
11,
5,
2,
4,
5,
4,
2,
2,
4
);
},
{
name = unicodeRanges;
value = (
57,
87
);
},
{
name = codePageRanges;
value = (
1252
);
}
);
date = "2016-11-10 14:02:23 +0000";
designer = "Monotype Design Team";
designerURL = "http://www.monotype.com/studio";
familyName = "Noto Sans Deseret";
fontMaster = (
{
ascender = 2189;
capHeight = 1462;
customParameters = (
{
name = typoAscender;
value = 2189;
},
{
name = typoDescender;
value = -600;
},
{
name = typoLineGap;
value = 0;
},
{
name = winAscent;
value = 2189;
},
{
name = winDescent;
value = 600;
},
{
name = hheaAscender;
value = 2189;
},
{
name = hheaDescender;
value = -600;
},
{
name = underlinePosition;
value = -205;
},
{
name = underlineThickness;
value = 102;
}
);
descender = -600;
id = "8FACA99C-1A90-46DE-9F50-66410175F95F";
weightValue = 400;
widthValue = 5;
xHeight = 1098;
}
);
glyphs = (
{
glyphname = .notdef;
lastChange = "2016-11-10 14:01:58 +0000";
layers = (
{
layerId = "8FACA99C-1A90-46DE-9F50-66410175F95F";
paths = (
{
closed = 1;
nodes = (
"1034 0 LINE",
"1034 1462 LINE",
"193 1462 LINE",
"193 0 LINE"
);
},
{
closed = 1;
nodes = (
"297 1358 LINE",
"930 1358 LINE",
"930 104 LINE",
"297 104 LINE"
);
}
);
width = 1229;
}
);
note = .notdef;
},
{
glyphname = g4;
lastChange = "2016-11-10 14:01:58 +0000";
layers = (
{
layerId = "8FACA99C-1A90-46DE-9F50-66410175F95F";
paths = (
{
closed = 1;
nodes = (
"946 -20 OFFCURVE",
"1133 238 OFFCURVE",
"1133 733 CURVE SMOOTH",
"1133 1200 OFFCURVE",
"901 1483 OFFCURVE",
"520 1483 CURVE SMOOTH",
"384 1483 OFFCURVE",
"265 1454 OFFCURVE",
"164 1397 CURVE",
"227 1241 LINE",
"306 1282 OFFCURVE",
"399 1321 OFFCURVE",
"512 1321 CURVE SMOOTH",
"783 1321 OFFCURVE",
"940 1123 OFFCURVE",
"940 772 CURVE",
"928 772 LINE",
"860 908 OFFCURVE",
"724 985 OFFCURVE",
"545 985 CURVE SMOOTH",
"460 985 OFFCURVE",
"384 965 OFFCURVE",
"317 926 CURVE SMOOTH",
"182 847 OFFCURVE",
"106 695 OFFCURVE",
"106 506 CURVE SMOOTH",
"106 408 OFFCURVE",
"127 319 OFFCURVE",
"169 238 CURVE SMOOTH",
"252 77 OFFCURVE",
"410 -20 OFFCURVE",
"594 -20 CURVE SMOOTH"
);
},
{
closed = 1;
nodes = (
"419 135 OFFCURVE",
"293 280 OFFCURVE",
"293 489 CURVE SMOOTH",
"293 706 OFFCURVE",
"399 829 OFFCURVE",
"590 829 CURVE SMOOTH",
"652 829 OFFCURVE",
"708 815 OFFCURVE",
"759 786 CURVE SMOOTH",
"859 728 OFFCURVE",
"922 621 OFFCURVE",
"922 518 CURVE SMOOTH",
"922 449 OFFCURVE",
"907 384 OFFCURVE",
"877 321 CURVE SMOOTH",
"816 196 OFFCURVE",
"717 135 OFFCURVE",
"596 135 CURVE SMOOTH"
);
}
);
width = 1257;
}
);
note = g4;
},
{
glyphname = g5;
lastChange = "2016-11-10 14:01:58 +0000";
layers = (
{
layerId = "8FACA99C-1A90-46DE-9F50-66410175F95F";
paths = (
{
closed = 1;
nodes = (
"802 -20 OFFCURVE",
"944 8 OFFCURVE",
"1055 63 CURVE",
"1055 219 LINE",
"928 160 OFFCURVE",
"792 131 OFFCURVE",
"649 131 CURVE SMOOTH",
"424 131 OFFCURVE",
"307 230 OFFCURVE",
"307 393 CURVE SMOOTH",
"307 582 OFFCURVE",
"463 680 OFFCURVE",
"754 680 CURVE SMOOTH",
"852 680 LINE",
"852 834 LINE",
"764 834 LINE SMOOTH",
"488 834 OFFCURVE",
"358 914 OFFCURVE",
"358 1090 CURVE SMOOTH",
"358 1237 OFFCURVE",
"471 1331 OFFCURVE",
"666 1331 CURVE SMOOTH",
"784 1331 OFFCURVE",
"897 1296 OFFCURVE",
"1004 1227 CURVE",
"1085 1362 LINE",
"971 1443 OFFCURVE",
"831 1483 OFFCURVE",
"666 1483 CURVE SMOOTH",
"354 1483 OFFCURVE",
"168 1334 OFFCURVE",
"168 1098 CURVE SMOOTH",
"168 918 OFFCURVE",
"274 797 OFFCURVE",
"479 762 CURVE",
"479 754 LINE",
"247 721 OFFCURVE",
"115 584 OFFCURVE",
"115 387 CURVE SMOOTH",
"115 130 OFFCURVE",
"300 -20 OFFCURVE",
"629 -20 CURVE SMOOTH"
);
}
);
width = 1139;
}
);
note = g5;
},
{
glyphname = g6;
lastChange = "2016-11-10 14:01:58 +0000";
layers = (
{
layerId = "8FACA99C-1A90-46DE-9F50-66410175F95F";
paths = (
{
closed = 1;
nodes = (
"979 -20 OFFCURVE",
"1198 257 OFFCURVE",
"1198 733 CURVE SMOOTH",
"1198 1229 OFFCURVE",
"1008 1483 OFFCURVE",
"639 1483 CURVE SMOOTH",
"351 1483 OFFCURVE",
"168 1334 OFFCURVE",
"168 1098 CURVE SMOOTH",
"168 918 OFFCURVE",
"274 797 OFFCURVE",
"479 762 CURVE",
"479 754 LINE",
"247 721 OFFCURVE",
"115 584 OFFCURVE",
"115 387 CURVE SMOOTH",
"115 136 OFFCURVE",
"295 -20 OFFCURVE",
"596 -20 CURVE SMOOTH"
);
},
{
closed = 1;
nodes = (
"411 133 OFFCURVE",
"307 230 OFFCURVE",
"307 393 CURVE SMOOTH",
"307 582 OFFCURVE",
"463 680 OFFCURVE",
"754 680 CURVE SMOOTH",
"811 680 LINE",
"811 834 LINE",
"764 834 LINE SMOOTH",
"488 834 OFFCURVE",
"358 914 OFFCURVE",
"358 1090 CURVE SMOOTH",
"358 1239 OFFCURVE",
"456 1325 OFFCURVE",
"635 1325 CURVE SMOOTH",
"884 1325 OFFCURVE",
"1004 1129 OFFCURVE",
"1004 733 CURVE SMOOTH",
"1004 333 OFFCURVE",
"871 133 OFFCURVE",
"604 133 CURVE SMOOTH"
);
}
);
width = 1323;
}
);
note = g6;
},
{
glyphname = g7;
lastChange = "2016-11-10 14:01:58 +0000";
layers = (
{
layerId = "8FACA99C-1A90-46DE-9F50-66410175F95F";
paths = (
{
closed = 1;
nodes = (
"1076 -20 OFFCURVE",
"1290 261 OFFCURVE",
"1290 733 CURVE SMOOTH",
"1290 1205 OFFCURVE",
"1078 1485 OFFCURVE",
"711 1485 CURVE SMOOTH",
"335 1485 OFFCURVE",
"125 1215 OFFCURVE",
"125 735 CURVE SMOOTH",
"125 252 OFFCURVE",
"337 -20 OFFCURVE",
"709 -20 CURVE SMOOTH"
);
},
{
closed = 1;
nodes = (
"453 139 OFFCURVE",
"319 348 OFFCURVE",
"319 733 CURVE SMOOTH",
"319 1058 OFFCURVE",
"418 1258 OFFCURVE",
"606 1311 CURVE",
"580 1229 OFFCURVE",
"567 1147 OFFCURVE",
"567 1065 CURVE SMOOTH",
"567 798 OFFCURVE",
"721 637 OFFCURVE",
"997 637 CURVE SMOOTH",
"1032 637 OFFCURVE",
"1064 640 OFFCURVE",
"1094 645 CURVE",
"1078 318 OFFCURVE",
"941 139 OFFCURVE",
"709 139 CURVE SMOOTH"
);
},
{
closed = 1;
nodes = (
"815 756 OFFCURVE",
"705 860 OFFCURVE",
"705 1077 CURVE SMOOTH",
"705 1166 OFFCURVE",
"717 1247 OFFCURVE",
"741 1321 CURVE",
"970 1305 OFFCURVE",
"1091 1115 OFFCURVE",
"1096 762 CURVE",
"1073 758 OFFCURVE",
"1045 756 OFFCURVE",
"1010 756 CURVE SMOOTH"
);
}
);
width = 1415;
}
);
note = g7;
},
{
glyphname = g8;
lastChange = "2016-11-10 14:01:58 +0000";
layers = (
{
layerId = "8FACA99C-1A90-46DE-9F50-66410175F95F";
paths = (
{
closed = 1;
nodes = (
"1076 -20 OFFCURVE",
"1290 261 OFFCURVE",
"1290 733 CURVE SMOOTH",
"1290 1205 OFFCURVE",
"1078 1485 OFFCURVE",
"711 1485 CURVE SMOOTH",
"335 1485 OFFCURVE",
"125 1215 OFFCURVE",
"125 735 CURVE SMOOTH",
"125 252 OFFCURVE",
"337 -20 OFFCURVE",
"709 -20 CURVE SMOOTH"
);
},
{
closed = 1;
nodes = (
"453 139 OFFCURVE",
"319 348 OFFCURVE",
"319 733 CURVE SMOOTH",
"319 1121 OFFCURVE",
"454 1323 OFFCURVE",
"711 1323 CURVE SMOOTH",
"966 1323 OFFCURVE",
"1096 1118 OFFCURVE",
"1096 733 CURVE SMOOTH",
"1096 345 OFFCURVE",
"965 139 OFFCURVE",
"709 139 CURVE SMOOTH"
);
}
);
width = 1415;
}
);
note = g8;
},
{
glyphname = g9;
lastChange = "2016-11-10 14:01:58 +0000";
layers = (
{
layerId = "8FACA99C-1A90-46DE-9F50-66410175F95F";
paths = (
{
closed = 1;
nodes = (
"1076 -20 OFFCURVE",
"1290 261 OFFCURVE",
"1290 733 CURVE SMOOTH",
"1290 1205 OFFCURVE",
"1078 1485 OFFCURVE",
"711 1485 CURVE SMOOTH",
"335 1485 OFFCURVE",
"125 1215 OFFCURVE",
"125 735 CURVE SMOOTH",
"125 252 OFFCURVE",
"337 -20 OFFCURVE",
"709 -20 CURVE SMOOTH"
);
},
{
closed = 1;
nodes = (
"434 175 OFFCURVE",
"319 376 OFFCURVE",
"319 733 CURVE SMOOTH",
"319 1086 OFFCURVE",
"433 1286 OFFCURVE",
"645 1317 CURVE",
"645 143 LINE"
);
},
{
closed = 1;
nodes = (
"770 1319 LINE",
"982 1290 OFFCURVE",
"1096 1090 OFFCURVE",
"1096 733 CURVE SMOOTH",
"1096 377 OFFCURVE",
"982 174 OFFCURVE",
"770 143 CURVE"
);
}
);
width = 1415;
}
);
note = g9;
},
{
glyphname = g10;
lastChange = "2016-11-10 14:01:58 +0000";
layers = (
{
layerId = "8FACA99C-1A90-46DE-9F50-66410175F95F";
paths = (
{
closed = 1;
nodes = (
"612 0 LINE",
"612 606 LINE",
"885 449 LINE",
"975 590 LINE",
"612 801 LINE",
"612 1462 LINE",
"428 1462 LINE",
"428 909 LINE",
"156 1071 LINE",
"61 928 LINE",
"428 713 LINE",
"428 0 LINE"
);
}
);
width = 1040;
}
);
note = g10;
},
{
glyphname = g11;
lastChange = "2016-11-10 14:01:58 +0000";
layers = (
{
layerId = "8FACA99C-1A90-46DE-9F50-66410175F95F";
paths = (
{
closed = 1;
nodes = (
"254 130 OFFCURVE",
"366 213 OFFCURVE",
"537 213 CURVE SMOOTH",
"692 213 OFFCURVE",
"820 128 OFFCURVE",
"872 0 CURVE",
"1057 0 LINE",
"1057 1462 LINE",
"872 1462 LINE",
"872 244 LINE",
"808 329 OFFCURVE",
"673 389 OFFCURVE",
"524 389 CURVE SMOOTH",
"271 389 OFFCURVE",
"85 251 OFFCURVE",
"20 23 CURVE",
"201 -35 LINE"
);
}
);
width = 1255;
}
);
note = g11;
},
{
glyphname = g12;
lastChange = "2016-11-10 14:01:58 +0000";
layers = (
{
layerId = "8FACA99C-1A90-46DE-9F50-66410175F95F";
paths = (
{
closed = 1;
nodes = (
"975 0 LINE",
"975 1462 LINE",
"784 1462 LINE",
"784 211 LINE",
"150 535 LINE",
"55 375 LINE",
"788 0 LINE"
);
}
);
width = 1176;
}
);
note = g12;
},
{
glyphname = g13;
lastChange = "2016-11-10 14:01:58 +0000";
layers = (
{
layerId = "8FACA99C-1A90-46DE-9F50-66410175F95F";
paths = (
{
closed = 1;
nodes = (
"598 0 LINE",
"795 313 LINE",
"1110 0 LINE",
"1296 0 LINE",
"1296 1462 LINE",
"1106 1462 LINE",
"1106 254 LINE",
"848 512 LINE",
"725 512 LINE",
"520 203 LINE",
"188 526 LINE",
"55 391 LINE",
"463 0 LINE"
);
}
);
width = 1497;
}
);
note = g13;
},
{
glyphname = g14;
lastChange = "2016-11-10 14:01:58 +0000";
layers = (
{
layerId = "8FACA99C-1A90-46DE-9F50-66410175F95F";
paths = (
{
closed = 1;
nodes = (
"383 -35 LINE",
"383 1184 LINE",
"448 1097 OFFCURVE",
"583 1038 OFFCURVE",
"731 1038 CURVE SMOOTH",
"980 1038 OFFCURVE",
"1170 1176 OFFCURVE",
"1235 1405 CURVE",
"1055 1462 LINE",
"1002 1297 OFFCURVE",
"890 1214 OFFCURVE",
"719 1214 CURVE SMOOTH",
"566 1214 OFFCURVE",
"436 1296 OFFCURVE",
"383 1427 CURVE",
"199 1427 LINE",
"199 -35 LINE"
);
}
);
width = 1255;
}
);
note = g14;
},
{
glyphname = g15;
lastChange = "2016-11-10 14:01:58 +0000";
layers = (
{
layerId = "8FACA99C-1A90-46DE-9F50-66410175F95F";
paths = (
{
closed = 1;
nodes = (
"1040 0 LINE",
"1040 967 LINE SMOOTH",
"1040 1303 OFFCURVE",
"872 1485 OFFCURVE",
"549 1485 CURVE SMOOTH",
"276 1485 OFFCURVE",
"104 1310 OFFCURVE",
"104 1049 CURVE SMOOTH",
"104 737 OFFCURVE",
"309 569 OFFCURVE",
"688 569 CURVE SMOOTH",
"856 569 LINE",
"856 0 LINE"
);
},
{
closed = 1;
nodes = (
"416 727 OFFCURVE",
"295 820 OFFCURVE",
"295 1040 CURVE SMOOTH",
"295 1219 OFFCURVE",
"397 1327 OFFCURVE",
"561 1327 CURVE SMOOTH",
"754 1327 OFFCURVE",
"856 1211 OFFCURVE",
"856 950 CURVE SMOOTH",
"856 727 LINE",
"709 727 LINE SMOOTH"
);
}
);
width = 1239;
}
);
note = g15;
},
{
glyphname = g16;
lastChange = "2016-11-10 14:01:58 +0000";
layers = (
{
layerId = "8FACA99C-1A90-46DE-9F50-66410175F95F";
paths = (
{
closed = 1;
nodes = (
"684 -23 OFFCURVE",
"821 126 OFFCURVE",
"821 385 CURVE SMOOTH",
"821 604 LINE",
"1016 575 OFFCURVE",
"1114 489 OFFCURVE",
"1114 346 CURVE SMOOTH",
"1114 245 OFFCURVE",
"1066 169 OFFCURVE",
"971 119 CURVE",
"1047 -20 LINE",
"1214 53 OFFCURVE",
"1307 191 OFFCURVE",
"1307 362 CURVE SMOOTH",
"1307 594 OFFCURVE",
"1130 743 OFFCURVE",
"821 768 CURVE",
"821 1462 LINE",
"637 1462 LINE",
"637 770 LINE",
"298 749 OFFCURVE",
"102 585 OFFCURVE",
"102 336 CURVE SMOOTH",
"102 112 OFFCURVE",
"234 -23 OFFCURVE",
"455 -23 CURVE SMOOTH"
);
},
{
closed = 1;
nodes = (
"362 135 OFFCURVE",
"293 212 OFFCURVE",
"293 336 CURVE SMOOTH",
"293 503 OFFCURVE",
"408 595 OFFCURVE",
"637 612 CURVE",
"637 367 LINE SMOOTH",
"637 218 OFFCURVE",
"570 135 OFFCURVE",
"463 135 CURVE SMOOTH"
);
}
);
width = 1409;
}
);
note = g16;
},
{
glyphname = g17;
lastChange = "2016-11-10 14:01:58 +0000";
layers = (
{
layerId = "8FACA99C-1A90-46DE-9F50-66410175F95F";
paths = (
{
closed = 1;
nodes = (
"979 -20 OFFCURVE",
"1198 257 OFFCURVE",
"1198 733 CURVE SMOOTH",
"1198 1229 OFFCURVE",
"1008 1483 OFFCURVE",
"639 1483 CURVE SMOOTH",
"351 1483 OFFCURVE",
"168 1334 OFFCURVE",
"168 1098 CURVE SMOOTH",
"168 918 OFFCURVE",
"274 797 OFFCURVE",
"479 762 CURVE",
"479 754 LINE",
"247 721 OFFCURVE",
"115 584 OFFCURVE",
"115 387 CURVE SMOOTH",
"115 136 OFFCURVE",
"295 -20 OFFCURVE",
"596 -20 CURVE SMOOTH"
);
},
{
closed = 1;
nodes = (
"411 133 OFFCURVE",
"307 230 OFFCURVE",
"307 393 CURVE SMOOTH",
"307 582 OFFCURVE",
"463 680 OFFCURVE",
"754 680 CURVE SMOOTH",
"1001 680 LINE",
"990 315 OFFCURVE",
"857 133 OFFCURVE",
"604 133 CURVE SMOOTH"
);
},
{
closed = 1;
nodes = (
"462 847 OFFCURVE",
"350 933 OFFCURVE",
"350 1090 CURVE SMOOTH",
"350 1235 OFFCURVE",
"442 1324 OFFCURVE",
"614 1329 CURVE",
"585 1256 OFFCURVE",
"571 1182 OFFCURVE",
"571 1108 CURVE SMOOTH",
"571 1005 OFFCURVE",
"609 914 OFFCURVE",
"686 834 CURVE"
);
},
{
closed = 1;
nodes = (
"753 899 OFFCURVE",
"702 1003 OFFCURVE",
"702 1118 CURVE SMOOTH",
"702 1177 OFFCURVE",
"715 1245 OFFCURVE",
"741 1321 CURVE",
"894 1273 OFFCURVE",
"987 1101 OFFCURVE",
"999 834 CURVE",
"840 834 LINE"
);
}
);
width = 1323;
}
);
note = g17;
},
{
glyphname = g18;
lastChange = "2016-11-10 14:01:58 +0000";
layers = (
{
layerId = "8FACA99C-1A90-46DE-9F50-66410175F95F";
paths = (
{
closed = 1;
nodes = (
"656 -20 OFFCURVE",
"747 48 OFFCURVE",
"795 199 CURVE",
"805 199 LINE",
"845 53 OFFCURVE",
"935 -20 OFFCURVE",
"1075 -20 CURVE SMOOTH",
"1321 -20 OFFCURVE",
"1444 215 OFFCURVE",
"1444 684 CURVE SMOOTH",
"1444 965 OFFCURVE",
"1411 1183 OFFCURVE",
"1323 1462 CURVE",
"1126 1462 LINE",
"1219 1166 OFFCURVE",
"1249 952 OFFCURVE",
"1249 680 CURVE SMOOTH",
"1249 499 OFFCURVE",
"1235 363 OFFCURVE",
"1206 274 CURVE SMOOTH",
"1177 184 OFFCURVE",
"1128 139 OFFCURVE",
"1059 139 CURVE SMOOTH",
"1002 139 OFFCURVE",
"961 170 OFFCURVE",
"934 231 CURVE SMOOTH",
"907 292 OFFCURVE",
"893 387 OFFCURVE",
"893 516 CURVE SMOOTH",
"893 858 LINE",
"709 858 LINE",
"709 516 LINE SMOOTH",
"709 387 OFFCURVE",
"696 292 OFFCURVE",
"669 231 CURVE SMOOTH",
"642 170 OFFCURVE",
"599 139 OFFCURVE",
"541 139 CURVE SMOOTH",
"474 139 OFFCURVE",
"425 184 OFFCURVE",
"396 274 CURVE SMOOTH",
"367 363 OFFCURVE",
"352 499 OFFCURVE",
"352 680 CURVE SMOOTH",
"352 938 OFFCURVE",
"393 1199 OFFCURVE",
"475 1462 CURVE",
"279 1462 LINE",
"196 1210 OFFCURVE",
"158 977 OFFCURVE",
"158 684 CURVE SMOOTH",
"158 212 OFFCURVE",
"277 -20 OFFCURVE",
"520 -20 CURVE SMOOTH"
);
}
);
width = 1602;
}
);
note = g18;
},
{
glyphname = g19;
lastChange = "2016-11-10 14:01:58 +0000";
layers = (
{
layerId = "8FACA99C-1A90-46DE-9F50-66410175F95F";
paths = (
{
closed = 1;
nodes = (
"965 0 LINE",
"1165 709 LINE",
"1353 756 OFFCURVE",
"1531 856 OFFCURVE",
"1628 975 CURVE",
"1520 1077 LINE",
"1433 975 OFFCURVE",
"1329 905 OFFCURVE",
"1210 866 CURVE",
"1380 1462 LINE",
"1192 1462 LINE",
"1020 829 LINE",
"970 824 OFFCURVE",
"924 821 OFFCURVE",
"883 821 CURVE SMOOTH",
"820 821 OFFCURVE",
"766 824 OFFCURVE",
"721 831 CURVE",
"614 1221 LINE SMOOTH",
"566 1400 OFFCURVE",
"488 1483 OFFCURVE",
"336 1483 CURVE SMOOTH",
"175 1483 OFFCURVE",
"70 1380 OFFCURVE",
"70 1208 CURVE SMOOTH",
"70 976 OFFCURVE",
"259 790 OFFCURVE",
"567 717 CURVE",
"764 0 LINE"
);
},
{
closed = 1;
nodes = (
"844 308 OFFCURVE",
"809 468 OFFCURVE",
"758 684 CURVE",
"805 680 OFFCURVE",
"850 678 OFFCURVE",
"893 678 CURVE SMOOTH",
"922 678 OFFCURVE",
"952 679 OFFCURVE",
"981 682 CURVE",
"927 478 OFFCURVE",
"896 357 OFFCURVE",
"887 318 CURVE SMOOTH",
"878 279 OFFCURVE",
"871 242 OFFCURVE",
"864 205 CURVE"
);
},
{
closed = 1;
nodes = (
"349 936 OFFCURVE",
"240 1063 OFFCURVE",
"240 1212 CURVE SMOOTH",
"240 1288 OFFCURVE",
"281 1325 OFFCURVE",
"326 1325 CURVE SMOOTH",
"379 1325 OFFCURVE",
"415 1288 OFFCURVE",
"440 1188 CURVE SMOOTH",
"522 877 LINE"
);
}
);
width = 1642;
}
);
note = g19;
},
{
glyphname = g20;
lastChange = "2016-11-10 14:01:58 +0000";
layers = (
{
layerId = "8FACA99C-1A90-46DE-9F50-66410175F95F";
paths = (
{
closed = 1;
nodes = (
"772 0 LINE",
"772 692 LINE",
"1104 713 OFFCURVE",
"1307 874 OFFCURVE",
"1307 1126 CURVE SMOOTH",
"1307 1350 OFFCURVE",
"1175 1485 OFFCURVE",
"954 1485 CURVE SMOOTH",
"725 1485 OFFCURVE",
"588 1336 OFFCURVE",
"588 1077 CURVE SMOOTH",
"588 858 LINE",
"393 887 OFFCURVE",
"295 973 OFFCURVE",
"295 1116 CURVE SMOOTH",
"295 1217 OFFCURVE",
"343 1293 OFFCURVE",
"438 1343 CURVE",
"362 1483 LINE",
"195 1408 OFFCURVE",
"102 1271 OFFCURVE",
"102 1100 CURVE SMOOTH",
"102 868 OFFCURVE",
"279 719 OFFCURVE",
"588 694 CURVE",
"588 0 LINE"
);
},
{
closed = 1;
nodes = (
"772 1096 LINE SMOOTH",
"772 1244 OFFCURVE",
"839 1327 OFFCURVE",
"946 1327 CURVE SMOOTH",
"1047 1327 OFFCURVE",
"1116 1250 OFFCURVE",
"1116 1126 CURVE SMOOTH",
"1116 959 OFFCURVE",
"1001 867 OFFCURVE",
"772 850 CURVE"
);
}
);
width = 1409;
}
);
note = g20;
},
{
glyphname = g21;
lastChange = "2016-11-10 14:01:58 +0000";
layers = (
{
layerId = "8FACA99C-1A90-46DE-9F50-66410175F95F";
paths = (
{
closed = 1;
nodes = (
"862 0 LINE",
"862 1462 LINE",
"39 1462 LINE",
"39 1298 LINE",
"678 1298 LINE",
"678 0 LINE"
);
}
);
width = 1073;
}
);
note = g21;
},
{
glyphname = g22;
lastChange = "2016-11-10 14:01:58 +0000";
layers = (
{
layerId = "8FACA99C-1A90-46DE-9F50-66410175F95F";
paths = (
{
closed = 1;
nodes = (
"754 -20 OFFCURVE",
"912 68 OFFCURVE",
"981 227 CURVE",
"981 0 LINE",
"1165 0 LINE",
"1165 1462 LINE",
"981 1462 LINE",
"981 1264 LINE",
"928 1397 OFFCURVE",
"799 1483 OFFCURVE",
"608 1483 CURVE SMOOTH",
"344 1483 OFFCURVE",
"168 1329 OFFCURVE",
"168 1098 CURVE SMOOTH",
"168 918 OFFCURVE",
"274 797 OFFCURVE",
"479 762 CURVE",
"479 754 LINE",
"247 721 OFFCURVE",
"115 584 OFFCURVE",
"115 387 CURVE SMOOTH",
"115 140 OFFCURVE",
"288 -20 OFFCURVE",
"559 -20 CURVE SMOOTH"
);
},
{
closed = 1;
nodes = (
"413 133 OFFCURVE",
"307 230 OFFCURVE",
"307 393 CURVE SMOOTH",
"307 582 OFFCURVE",
"463 680 OFFCURVE",
"754 680 CURVE SMOOTH",
"811 680 LINE",
"811 834 LINE",
"764 834 LINE SMOOTH",
"488 834 OFFCURVE",
"358 914 OFFCURVE",
"358 1090 CURVE SMOOTH",
"358 1237 OFFCURVE",
"456 1325 OFFCURVE",
"616 1325 CURVE SMOOTH",
"867 1325 OFFCURVE",
"981 1144 OFFCURVE",
"981 733 CURVE SMOOTH",
"981 705 LINE SMOOTH",
"974 329 OFFCURVE",
"837 133 OFFCURVE",
"584 133 CURVE SMOOTH"
);
}
);
width = 1366;
}
);
note = g22;
},
{
glyphname = g23;
lastChange = "2016-11-10 14:01:58 +0000";
layers = (
{
layerId = "8FACA99C-1A90-46DE-9F50-66410175F95F";
paths = (
{
closed = 1;
nodes = (
"1030 0 LINE",
"1030 954 LINE SMOOTH",
"1030 1307 OFFCURVE",
"867 1483 OFFCURVE",
"541 1483 CURVE SMOOTH",
"194 1483 OFFCURVE",
"27 1282 OFFCURVE",
"27 907 CURVE",
"209 907 LINE",
"209 1184 OFFCURVE",
"316 1323 OFFCURVE",
"530 1323 CURVE SMOOTH",
"749 1323 OFFCURVE",
"846 1202 OFFCURVE",
"846 918 CURVE SMOOTH",
"846 0 LINE"
);
}
);
width = 1229;
}
);
note = g23;
},
{
glyphname = g24;
lastChange = "2016-11-10 14:01:58 +0000";
layers = (
{
layerId = "8FACA99C-1A90-46DE-9F50-66410175F95F";
paths = (
{
closed = 1;
nodes = (
"773 -20 OFFCURVE",
"891 57 OFFCURVE",
"967 211 CURVE",
"967 0 LINE",
"1151 0 LINE",
"1151 1462 LINE",
"967 1462 LINE",
"967 1270 LINE",
"904 1405 OFFCURVE",
"788 1483 OFFCURVE",
"643 1483 CURVE SMOOTH",
"304 1483 OFFCURVE",
"125 1216 OFFCURVE",
"125 729 CURVE SMOOTH",
"125 246 OFFCURVE",
"297 -20 OFFCURVE",
"612 -20 CURVE SMOOTH"
);
},
{
closed = 1;
nodes = (
"588 141 OFFCURVE",
"530 163 OFFCURVE",
"479 206 CURVE SMOOTH",
"377 292 OFFCURVE",
"317 457 OFFCURVE",
"317 690 CURVE",
"324 690 LINE",
"395 567 OFFCURVE",
"508 502 OFFCURVE",
"647 502 CURVE SMOOTH",
"784 502 OFFCURVE",
"906 576 OFFCURVE",
"967 700 CURVE",
"967 426 LINE",
"923 246 OFFCURVE",
"811 141 OFFCURVE",
"655 141 CURVE SMOOTH"
);
},
{
closed = 1;
nodes = (
"460 631 OFFCURVE",
"336 768 OFFCURVE",
"336 971 CURVE SMOOTH",
"336 1179 OFFCURVE",
"467 1327 OFFCURVE",
"651 1327 CURVE SMOOTH",
"832 1327 OFFCURVE",
"967 1186 OFFCURVE",
"967 979 CURVE SMOOTH",
"967 775 OFFCURVE",
"838 631 OFFCURVE",
"649 631 CURVE SMOOTH"
);
}
);
width = 1352;
}
);
note = g24;
},
{
glyphname = g25;
lastChange = "2016-11-10 14:01:58 +0000";
layers = (
{
layerId = "8FACA99C-1A90-46DE-9F50-66410175F95F";
paths = (
{
closed = 1;
nodes = (
"842 -20 OFFCURVE",
"937 -6 OFFCURVE",
"1044 39 CURVE",
"1044 199 LINE",
"934 160 OFFCURVE",
"835 141 OFFCURVE",
"748 141 CURVE SMOOTH",
"473 141 OFFCURVE",
"319 355 OFFCURVE",
"319 731 CURVE SMOOTH",
"319 1098 OFFCURVE",
"485 1321 OFFCURVE",
"754 1321 CURVE SMOOTH",
"843 1321 OFFCURVE",
"938 1294 OFFCURVE",
"1038 1241 CURVE",
"1102 1397 LINE",
"1001 1454 OFFCURVE",
"882 1483 OFFCURVE",
"745 1483 CURVE SMOOTH",
"618 1483 OFFCURVE",
"508 1453 OFFCURVE",
"415 1392 CURVE SMOOTH",
"227 1270 OFFCURVE",
"125 1034 OFFCURVE",
"125 733 CURVE SMOOTH",
"125 254 OFFCURVE",
"336 -20 OFFCURVE",
"715 -20 CURVE SMOOTH"
);
}
);
width = 1165;
}
);
note = g25;
},
{
glyphname = g26;
lastChange = "2016-11-10 14:01:58 +0000";
layers = (
{
layerId = "8FACA99C-1A90-46DE-9F50-66410175F95F";
paths = (
{
closed = 1;
nodes = (
"631 0 LINE",
"971 629 LINE",
"854 735 LINE",
"801 692 OFFCURVE",
"690 655 OFFCURVE",
"594 655 CURVE SMOOTH",
"394 655 OFFCURVE",
"281 772 OFFCURVE",
"281 981 CURVE SMOOTH",
"281 1200 OFFCURVE",
"410 1327 OFFCURVE",
"623 1327 CURVE SMOOTH",
"725 1327 OFFCURVE",
"820 1296 OFFCURVE",
"909 1235 CURVE",
"985 1378 LINE",
"906 1438 OFFCURVE",
"782 1485 OFFCURVE",
"633 1485 CURVE SMOOTH",
"305 1485 OFFCURVE",
"94 1282 OFFCURVE",
"94 975 CURVE SMOOTH",
"94 680 OFFCURVE",
"271 500 OFFCURVE",
"555 500 CURVE SMOOTH",
"621 500 OFFCURVE",
"681 511 OFFCURVE",
"735 532 CURVE",
"426 0 LINE"
);
}
);
width = 1047;
}
);
note = g26;
},
{
glyphname = g27;
lastChange = "2016-11-10 14:01:58 +0000";
layers = (
{
layerId = "8FACA99C-1A90-46DE-9F50-66410175F95F";
paths = (
{
closed = 1;
nodes = (
"623 -20 OFFCURVE",
"714 48 OFFCURVE",
"762 199 CURVE",
"772 199 LINE",
"812 53 OFFCURVE",
"902 -20 OFFCURVE",
"1042 -20 CURVE SMOOTH",
"1281 -20 OFFCURVE",
"1411 225 OFFCURVE",
"1411 684 CURVE SMOOTH",
"1411 1183 OFFCURVE",
"1173 1485 OFFCURVE",
"772 1485 CURVE SMOOTH",
"639 1485 OFFCURVE",
"523 1453 OFFCURVE",
"426 1388 CURVE SMOOTH",
"230 1258 OFFCURVE",
"125 1007 OFFCURVE",
"125 684 CURVE SMOOTH",
"125 212 OFFCURVE",
"244 -20 OFFCURVE",
"487 -20 CURVE SMOOTH"
);
},
{
closed = 1;
nodes = (
"382 139 OFFCURVE",
"319 319 OFFCURVE",
"319 680 CURVE SMOOTH",
"319 1101 OFFCURVE",
"477 1323 OFFCURVE",
"772 1323 CURVE SMOOTH",
"1067 1323 OFFCURVE",
"1217 1101 OFFCURVE",
"1217 684 CURVE SMOOTH",
"1217 491 OFFCURVE",
"1202 352 OFFCURVE",
"1171 267 CURVE SMOOTH",
"1140 182 OFFCURVE",
"1091 139 OFFCURVE",
"1026 139 CURVE SMOOTH",
"969 139 OFFCURVE",
"928 170 OFFCURVE",
"901 231 CURVE SMOOTH",
"874 292 OFFCURVE",
"860 387 OFFCURVE",
"860 516 CURVE SMOOTH",
"860 612 LINE",
"676 612 LINE",
"676 516 LINE SMOOTH",
"676 387 OFFCURVE",
"663 292 OFFCURVE",
"636 231 CURVE SMOOTH",
"609 170 OFFCURVE",
"566 139 OFFCURVE",
"508 139 CURVE SMOOTH"
);
}
);
width = 1536;
}
);
note = g27;
},
{
glyphname = g28;
lastChange = "2016-11-10 14:01:58 +0000";
layers = (
{
layerId = "8FACA99C-1A90-46DE-9F50-66410175F95F";
paths = (
{
closed = 1;
nodes = (
"623 -20 OFFCURVE",
"714 48 OFFCURVE",
"762 199 CURVE",
"772 199 LINE",
"812 53 OFFCURVE",
"902 -20 OFFCURVE",
"1042 -20 CURVE SMOOTH",
"1281 -20 OFFCURVE",
"1411 225 OFFCURVE",
"1411 684 CURVE SMOOTH",
"1411 1183 OFFCURVE",
"1173 1485 OFFCURVE",
"772 1485 CURVE SMOOTH",
"639 1485 OFFCURVE",
"523 1453 OFFCURVE",
"426 1388 CURVE SMOOTH",
"230 1258 OFFCURVE",
"125 1007 OFFCURVE",
"125 684 CURVE SMOOTH",
"125 212 OFFCURVE",
"244 -20 OFFCURVE",
"487 -20 CURVE SMOOTH"
);
},
{
closed = 1;
nodes = (
"382 139 OFFCURVE",
"319 319 OFFCURVE",
"319 680 CURVE SMOOTH",
"319 1050 OFFCURVE",
"436 1261 OFFCURVE",
"670 1313 CURVE",
"643 1240 OFFCURVE",
"629 1157 OFFCURVE",
"629 1065 CURVE SMOOTH",
"629 788 OFFCURVE",
"784 637 OFFCURVE",
"1071 637 CURVE SMOOTH",
"1099 637 OFFCURVE",
"1186 642 OFFCURVE",
"1217 649 CURVE",
"1216 483 OFFCURVE",
"1200 357 OFFCURVE",
"1171 270 CURVE SMOOTH",
"1141 183 OFFCURVE",
"1093 139 OFFCURVE",
"1026 139 CURVE SMOOTH",
"969 139 OFFCURVE",
"928 170 OFFCURVE",
"901 231 CURVE SMOOTH",
"874 292 OFFCURVE",
"860 387 OFFCURVE",
"860 516 CURVE SMOOTH",
"860 612 LINE",
"676 612 LINE",
"676 516 LINE SMOOTH",
"676 387 OFFCURVE",
"663 292 OFFCURVE",
"636 231 CURVE SMOOTH",
"609 170 OFFCURVE",
"566 139 OFFCURVE",
"508 139 CURVE SMOOTH"
);
},
{
closed = 1;
nodes = (
"871 756 OFFCURVE",
"766 860 OFFCURVE",
"766 1077 CURVE SMOOTH",
"766 1162 OFFCURVE",
"783 1269 OFFCURVE",
"803 1321 CURVE",
"1058 1309 OFFCURVE",
"1199 1114 OFFCURVE",
"1214 766 CURVE",
"1178 759 OFFCURVE",
"1137 756 OFFCURVE",
"1090 756 CURVE SMOOTH"
);
}
);
width = 1536;
}
);
note = g28;
},
{
glyphname = g29;
lastChange = "2016-11-10 14:01:58 +0000";
layers = (
{
layerId = "8FACA99C-1A90-46DE-9F50-66410175F95F";
paths = (
{
closed = 1;
nodes = (
"383 0 LINE",
"383 569 LINE",
"551 569 LINE SMOOTH",
"928 569 OFFCURVE",
"1135 737 OFFCURVE",
"1135 1049 CURVE SMOOTH",
"1135 1310 OFFCURVE",
"963 1485 OFFCURVE",
"690 1485 CURVE SMOOTH",
"367 1485 OFFCURVE",
"199 1303 OFFCURVE",
"199 967 CURVE SMOOTH",
"199 0 LINE"
);
},
{
closed = 1;
nodes = (
"383 950 LINE SMOOTH",
"383 1211 OFFCURVE",
"485 1327 OFFCURVE",
"678 1327 CURVE SMOOTH",
"842 1327 OFFCURVE",
"944 1216 OFFCURVE",
"944 1040 CURVE SMOOTH",
"944 820 OFFCURVE",
"823 727 OFFCURVE",
"530 727 CURVE SMOOTH",
"383 727 LINE"
);
}
);
width = 1239;
}
);
note = g29;
},
{
glyphname = g30;
lastChange = "2016-11-10 14:01:58 +0000";
layers = (
{
layerId = "8FACA99C-1A90-46DE-9F50-66410175F95F";
paths = (
{
closed = 1;
nodes = (
"793 -20 OFFCURVE",
"1008 153 OFFCURVE",
"1008 412 CURVE SMOOTH",
"1008 605 OFFCURVE",
"880 731 OFFCURVE",
"643 766 CURVE",
"643 774 LINE",
"840 807 OFFCURVE",
"954 933 OFFCURVE",
"954 1120 CURVE SMOOTH",
"954 1356 OFFCURVE",
"790 1483 OFFCURVE",
"483 1483 CURVE SMOOTH",
"318 1483 OFFCURVE",
"166 1438 OFFCURVE",
"53 1362 CURVE",
"127 1227 LINE",
"233 1296 OFFCURVE",
"345 1331 OFFCURVE",
"463 1331 CURVE SMOOTH",
"658 1331 OFFCURVE",
"764 1247 OFFCURVE",
"764 1087 CURVE SMOOTH",
"764 915 OFFCURVE",
"635 834 OFFCURVE",
"354 834 CURVE SMOOTH",
"270 834 LINE",
"270 680 LINE",
"410 680 LINE SMOOTH",
"686 680 OFFCURVE",
"815 594 OFFCURVE",
"815 397 CURVE SMOOTH",
"815 225 OFFCURVE",
"678 131 OFFCURVE",
"455 131 CURVE SMOOTH",
"323 131 OFFCURVE",
"190 160 OFFCURVE",
"57 219 CURVE",
"57 59 LINE",
"161 10 OFFCURVE",
"314 -20 OFFCURVE",
"465 -20 CURVE SMOOTH"
);
}
);
width = 1122;
}
);
note = g30;
},
{
glyphname = g31;
lastChange = "2016-11-10 14:01:58 +0000";
layers = (
{
layerId = "8FACA99C-1A90-46DE-9F50-66410175F95F";
paths = (
{
closed = 1;
nodes = (
"1022 0 LINE",
"1022 164 LINE",
"383 164 LINE",
"383 1462 LINE",
"199 1462 LINE",
"199 0 LINE"
);
}
);
width = 1073;
}
);
note = g31;
},
{
glyphname = g32;
lastChange = "2016-11-10 14:01:58 +0000";
layers = (
{
layerId = "8FACA99C-1A90-46DE-9F50-66410175F95F";
paths = (
{
closed = 1;
nodes = (
"771 -20 OFFCURVE",
"901 104 OFFCURVE",
"901 289 CURVE SMOOTH",
"901 381 OFFCURVE",
"858 487 OFFCURVE",
"765 631 CURVE SMOOTH",
"690 745 LINE",
"1159 1462 LINE",
"961 1462 LINE",
"586 887 LINE",
"201 1462 LINE",
"0 1462 LINE",
"487 743 LINE",
"417 634 LINE SMOOTH",
"325 492 OFFCURVE",
"279 375 OFFCURVE",
"279 283 CURVE SMOOTH",
"279 90 OFFCURVE",
"399 -20 OFFCURVE",
"588 -20 CURVE SMOOTH"
);
},
{
closed = 1;
nodes = (
"497 131 OFFCURVE",
"444 188 OFFCURVE",
"444 283 CURVE SMOOTH",
"444 360 OFFCURVE",
"491 466 OFFCURVE",
"584 602 CURVE",
"683 463 OFFCURVE",
"733 358 OFFCURVE",
"733 287 CURVE SMOOTH",
"733 195 OFFCURVE",
"685 131 OFFCURVE",
"586 131 CURVE SMOOTH"
);
}
);
width = 1159;
}
);
note = g32;
},
{
glyphname = g33;
lastChange = "2016-11-10 14:01:58 +0000";
layers = (
{
layerId = "8FACA99C-1A90-46DE-9F50-66410175F95F";
paths = (
{
closed = 1;
nodes = (
"875 -20 OFFCURVE",
"1049 110 OFFCURVE",
"1049 317 CURVE SMOOTH",
"1049 419 OFFCURVE",
"1005 509 OFFCURVE",
"918 586 CURVE",
"1001 577 OFFCURVE",
"1080 551 OFFCURVE",
"1155 508 CURVE",
"1219 635 LINE",
"1105 699 OFFCURVE",
"948 731 OFFCURVE",
"748 731 CURVE",
"627 799 LINE",
"871 843 OFFCURVE",
"1018 976 OFFCURVE",
"1018 1159 CURVE SMOOTH",
"1018 1351 OFFCURVE",
"849 1483 OFFCURVE",
"610 1483 CURVE SMOOTH",
"338 1483 OFFCURVE",
"166 1353 OFFCURVE",
"166 1145 CURVE SMOOTH",
"166 1070 OFFCURVE",
"202 978 OFFCURVE",
"258 922 CURVE",
"175 931 OFFCURVE",
"97 959 OFFCURVE",
"23 1004 CURVE",
"-39 879 LINE",
"67 814 OFFCURVE",
"203 782 OFFCURVE",
"368 782 CURVE SMOOTH",
"403 782 LINE",
"450 752 OFFCURVE",
"489 728 OFFCURVE",
"522 711 CURVE",
"277 670 OFFCURVE",
"115 521 OFFCURVE",
"115 324 CURVE SMOOTH",
"115 112 OFFCURVE",
"292 -20 OFFCURVE",
"580 -20 CURVE SMOOTH"
);
},
{
closed = 1;
nodes = (
"399 123 OFFCURVE",
"291 211 OFFCURVE",
"291 348 CURVE SMOOTH",
"291 488 OFFCURVE",
"416 567 OFFCURVE",
"672 596 CURVE",
"801 535 OFFCURVE",
"872 439 OFFCURVE",
"872 328 CURVE SMOOTH",
"872 199 OFFCURVE",
"779 123 OFFCURVE",
"580 123 CURVE SMOOTH"
);
},
{
closed = 1;
nodes = (
"395 970 OFFCURVE",
"342 1046 OFFCURVE",
"342 1133 CURVE SMOOTH",
"342 1270 OFFCURVE",
"435 1337 OFFCURVE",
"598 1337 CURVE SMOOTH",
"739 1337 OFFCURVE",
"840 1256 OFFCURVE",
"840 1141 CURVE SMOOTH",
"840 1098 OFFCURVE",
"828 1062 OFFCURVE",
"803 1033 CURVE SMOOTH",
"754 976 OFFCURVE",
"676 942 OFFCURVE",
"492 915 CURVE"
);
}
);
width = 1171;
}
);
note = g33;
},
{
glyphname = g34;
lastChange = "2016-11-10 14:01:58 +0000";
layers = (
{
layerId = "8FACA99C-1A90-46DE-9F50-66410175F95F";
paths = (
{
closed = 1;
nodes = (
"756 -20 OFFCURVE",
"840 3 OFFCURVE",
"915 49 CURVE SMOOTH",
"1065 140 OFFCURVE",
"1151 310 OFFCURVE",
"1151 506 CURVE SMOOTH",
"1151 799 OFFCURVE",
"973 985 OFFCURVE",
"713 985 CURVE SMOOTH",
"534 985 OFFCURVE",
"399 909 OFFCURVE",
"330 772 CURVE",
"317 772 LINE",
"317 1124 OFFCURVE",
"476 1321 OFFCURVE",
"745 1321 CURVE SMOOTH",
"858 1321 OFFCURVE",
"951 1282 OFFCURVE",
"1030 1241 CURVE",
"1094 1397 LINE",
"991 1454 OFFCURVE",
"872 1483 OFFCURVE",
"737 1483 CURVE SMOOTH",
"356 1483 OFFCURVE",
"125 1198 OFFCURVE",
"125 733 CURVE SMOOTH",
"125 238 OFFCURVE",
"311 -20 OFFCURVE",
"664 -20 CURVE SMOOTH"
);
},
{
closed = 1;
nodes = (
"600 135 OFFCURVE",
"545 151 OFFCURVE",
"497 182 CURVE SMOOTH",
"401 245 OFFCURVE",
"336 383 OFFCURVE",
"336 518 CURVE SMOOTH",
"336 569 OFFCURVE",
"351 619 OFFCURVE",
"380 668 CURVE SMOOTH",
"439 767 OFFCURVE",
"544 829 OFFCURVE",
"668 829 CURVE SMOOTH",
"857 829 OFFCURVE",
"965 706 OFFCURVE",
"965 489 CURVE SMOOTH",
"965 280 OFFCURVE",
"839 135 OFFCURVE",
"662 135 CURVE SMOOTH"
);
}
);
width = 1229;
}
);
note = g34;
},
{
glyphname = g35;
lastChange = "2016-11-10 14:01:58 +0000";
layers = (
{
layerId = "8FACA99C-1A90-46DE-9F50-66410175F95F";
paths = (
{
closed = 1;
nodes = (
"1046 -20 OFFCURVE",
"1227 246 OFFCURVE",
"1227 733 CURVE SMOOTH",
"1227 1220 OFFCURVE",
"1054 1483 OFFCURVE",
"739 1483 CURVE SMOOTH",
"580 1483 OFFCURVE",
"462 1406 OFFCURVE",
"385 1251 CURVE",
"385 1462 LINE",
"201 1462 LINE",
"201 0 LINE",
"385 0 LINE",
"385 193 LINE",
"448 57 OFFCURVE",
"564 -20 OFFCURVE",
"709 -20 CURVE SMOOTH"
);
},
{
closed = 1;
nodes = (
"543 139 OFFCURVE",
"420 256 OFFCURVE",
"385 424 CURVE",
"385 1036 LINE",
"430 1219 OFFCURVE",
"543 1321 OFFCURVE",
"696 1321 CURVE SMOOTH",
"912 1321 OFFCURVE",
"1034 1120 OFFCURVE",
"1034 731 CURVE SMOOTH",
"1034 336 OFFCURVE",
"923 139 OFFCURVE",
"700 139 CURVE SMOOTH"
);
}
);
width = 1352;
}
);
note = g35;
},
{
glyphname = g36;
lastChange = "2016-11-10 14:01:58 +0000";
layers = (
{
layerId = "8FACA99C-1A90-46DE-9F50-66410175F95F";
paths = (
{
closed = 1;
nodes = (
"834 -20 OFFCURVE",
"1028 136 OFFCURVE",
"1028 391 CURVE SMOOTH",
"1028 459 OFFCURVE",
"1015 518 OFFCURVE",
"990 567 CURVE SMOOTH",
"939 665 OFFCURVE",
"846 733 OFFCURVE",
"629 813 CURVE SMOOTH",
"538 846 OFFCURVE",
"472 876 OFFCURVE",
"430 902 CURVE SMOOTH",
"345 954 OFFCURVE",
"309 1012 OFFCURVE",
"309 1108 CURVE SMOOTH",
"309 1243 OFFCURVE",
"413 1321 OFFCURVE",
"586 1321 CURVE SMOOTH",
"694 1321 OFFCURVE",
"811 1295 OFFCURVE",
"936 1243 CURVE",
"993 1401 LINE",
"870 1456 OFFCURVE",
"736 1483 OFFCURVE",
"590 1483 CURVE SMOOTH",
"310 1483 OFFCURVE",
"123 1338 OFFCURVE",
"123 1110 CURVE SMOOTH",
"123 898 OFFCURVE",
"229 775 OFFCURVE",
"500 676 CURVE SMOOTH",
"595 641 OFFCURVE",
"667 610 OFFCURVE",
"714 583 CURVE SMOOTH",
"808 528 OFFCURVE",
"844 472 OFFCURVE",
"844 375 CURVE SMOOTH",
"844 228 OFFCURVE",
"733 139 OFFCURVE",
"514 139 CURVE SMOOTH",
"386 139 OFFCURVE",
"228 172 OFFCURVE",
"104 225 CURVE",
"104 49 LINE",
"199 3 OFFCURVE",
"333 -20 OFFCURVE",
"506 -20 CURVE SMOOTH"
);
}
);
width = 1124;
}
);
note = g36;
},
{
glyphname = g37;
lastChange = "2016-11-10 14:01:58 +0000";
layers = (
{
layerId = "8FACA99C-1A90-46DE-9F50-66410175F95F";
paths = (
{
closed = 1;
nodes = (
"821 0 LINE",
"821 367 LINE",
"1120 396 OFFCURVE",
"1307 566 OFFCURVE",
"1307 809 CURVE SMOOTH",
"1307 980 OFFCURVE",
"1220 1096 OFFCURVE",
"1047 1155 CURVE",
"971 1012 LINE",
"1069 975 OFFCURVE",
"1118 906 OFFCURVE",
"1118 805 CURVE SMOOTH",
"1118 653 OFFCURVE",
"1005 545 OFFCURVE",
"821 528 CURVE",
"821 1462 LINE",
"637 1462 LINE",
"637 995 LINE",
"598 1099 OFFCURVE",
"517 1157 OFFCURVE",
"410 1157 CURVE SMOOTH",
"223 1157 OFFCURVE",
"102 1024 OFFCURVE",
"102 823 CURVE SMOOTH",
"102 551 OFFCURVE",
"305 377 OFFCURVE",
"637 365 CURVE",
"637 0 LINE"
);
},
{
closed = 1;
nodes = (
"408 542 OFFCURVE",
"293 644 OFFCURVE",
"293 829 CURVE SMOOTH",
"293 936 OFFCURVE",
"351 999 OFFCURVE",
"440 999 CURVE SMOOTH",
"559 999 OFFCURVE",
"637 860 OFFCURVE",
"637 645 CURVE SMOOTH",
"637 524 LINE"
);
}
);
width = 1409;
}
);
note = g37;
},
{
glyphname = g38;
lastChange = "2016-11-10 14:01:58 +0000";
layers = (
{
layerId = "8FACA99C-1A90-46DE-9F50-66410175F95F";
paths = (
{
closed = 1;
nodes = (
"1033 -18 OFFCURVE",
"1202 182 OFFCURVE",
"1202 557 CURVE",
"1020 557 LINE",
"1020 280 OFFCURVE",
"913 141 OFFCURVE",
"698 141 CURVE SMOOTH",
"482 141 OFFCURVE",
"383 260 OFFCURVE",
"383 547 CURVE SMOOTH",
"383 1464 LINE",
"199 1464 LINE",
"199 510 LINE SMOOTH",
"199 158 OFFCURVE",
"362 -18 OFFCURVE",
"688 -18 CURVE SMOOTH"
);
}
);
width = 1229;
}
);
note = g38;
},
{
glyphname = g39;
lastChange = "2016-11-10 14:01:58 +0000";
layers = (
{
layerId = "8FACA99C-1A90-46DE-9F50-66410175F95F";
paths = (
{
closed = 1;
nodes = (
"798 -20 OFFCURVE",
"1040 262 OFFCURVE",
"1040 735 CURVE SMOOTH",
"1040 1222 OFFCURVE",
"832 1483 OFFCURVE",
"440 1483 CURVE SMOOTH",
"315 1483 OFFCURVE",
"198 1459 OFFCURVE",
"88 1411 CURVE",
"133 1253 LINE",
"234 1298 OFFCURVE",
"329 1321 OFFCURVE",
"418 1321 CURVE SMOOTH",
"697 1321 OFFCURVE",
"846 1117 OFFCURVE",
"846 737 CURVE SMOOTH",
"846 361 OFFCURVE",
"684 141 OFFCURVE",
"412 141 CURVE SMOOTH",
"305 141 OFFCURVE",
"197 169 OFFCURVE",
"88 225 CURVE",
"88 45 LINE",
"178 2 OFFCURVE",
"282 -20 OFFCURVE",
"401 -20 CURVE SMOOTH"
);
}
);
width = 1165;
}
);
note = g39;
},
{
glyphname = g40;
lastChange = "2016-11-10 14:01:58 +0000";
layers = (
{
layerId = "8FACA99C-1A90-46DE-9F50-66410175F95F";
paths = (
{
closed = 1;
nodes = (
"1137 0 LINE",
"1137 1085 LINE",
"952 1085 LINE",
"383 641 LINE",
"383 1462 LINE",
"199 1462 LINE",
"199 444 LINE",
"383 444 LINE",
"952 881 LINE",
"952 0 LINE"
);
}
);
width = 1337;
}
);
note = g40;
},
{
glyphname = g41;
lastChange = "2016-11-10 14:01:58 +0000";
layers = (
{
layerId = "8FACA99C-1A90-46DE-9F50-66410175F95F";
paths = (
{
closed = 1;
nodes = (
"406 0 LINE",
"1049 1217 LINE",
"1057 1217 LINE",
"1053 1162 OFFCURVE",
"1040 934 OFFCURVE",
"1040 795 CURVE SMOOTH",
"1040 0 LINE",
"1212 0 LINE",
"1212 1462 LINE",
"1008 1462 LINE",
"367 252 LINE",
"358 252 LINE",
"365 308 OFFCURVE",
"373 546 OFFCURVE",
"373 659 CURVE SMOOTH",
"373 1462 LINE",
"201 1462 LINE",
"201 0 LINE"
);
}
);
width = 1413;
}
);
note = g41;
},
{
glyphname = g42;
lastChange = "2016-11-10 14:01:58 +0000";
layers = (
{
layerId = "8FACA99C-1A90-46DE-9F50-66410175F95F";
paths = (
{
closed = 1;
nodes = (
"598 0 LINE",
"795 313 LINE",
"1110 0 LINE",
"1296 0 LINE",
"1296 799 LINE",
"1497 682 LINE",
"1587 823 LINE",
"1296 995 LINE",
"1296 1462 LINE",
"1106 1462 LINE",
"1106 1108 LINE",
"874 1245 LINE",
"780 1102 LINE",
"1106 911 LINE",
"1106 254 LINE",
"848 512 LINE",
"725 512 LINE",
"520 203 LINE",
"188 526 LINE",
"55 391 LINE",
"463 0 LINE"
);
}
);
width = 1550;
}
);
note = g42;
},
{
glyphname = g43;
lastChange = "2016-11-10 14:01:58 +0000";
layers = (
{
layerId = "8FACA99C-1A90-46DE-9F50-66410175F95F";
paths = (
{
closed = 1;
nodes = (
"1076 -20 OFFCURVE",
"1290 261 OFFCURVE",
"1290 733 CURVE SMOOTH",
"1290 1205 OFFCURVE",
"1078 1485 OFFCURVE",
"711 1485 CURVE SMOOTH",
"335 1485 OFFCURVE",
"125 1215 OFFCURVE",
"125 735 CURVE SMOOTH",
"125 252 OFFCURVE",
"337 -20 OFFCURVE",
"709 -20 CURVE SMOOTH"
);
},
{
closed = 1;
nodes = (
"434 175 OFFCURVE",
"319 376 OFFCURVE",
"319 733 CURVE SMOOTH",
"319 1086 OFFCURVE",
"433 1286 OFFCURVE",
"645 1317 CURVE",
"645 887 LINE",
"461 1024 LINE",
"408 860 LINE",
"645 686 LINE",
"645 143 LINE"
);
},
{
closed = 1;
nodes = (
"770 594 LINE",
"963 455 LINE",
"1010 616 LINE",
"770 795 LINE",
"770 1319 LINE",
"982 1290 OFFCURVE",
"1096 1090 OFFCURVE",
"1096 733 CURVE SMOOTH",
"1096 377 OFFCURVE",
"982 174 OFFCURVE",
"770 143 CURVE"
);
}
);
width = 1415;
}
);
note = g43;
},
{
glyphname = g44;
lastChange = "2016-11-10 14:01:58 +0000";
layers = (
{
layerId = "8FACA99C-1A90-46DE-9F50-66410175F95F";
paths = (
{
closed = 1;
nodes = (
"813 -20 OFFCURVE",
"979 184 OFFCURVE",
"979 549 CURVE SMOOTH",
"979 896 OFFCURVE",
"786 1118 OFFCURVE",
"473 1118 CURVE SMOOTH",
"357 1118 OFFCURVE",
"247 1092 OFFCURVE",
"143 1040 CURVE",
"193 899 LINE",
"284 944 OFFCURVE",
"376 967 OFFCURVE",
"471 967 CURVE SMOOTH",
"650 967 OFFCURVE",
"773 843 OFFCURVE",
"786 616 CURVE",
"722 703 OFFCURVE",
"613 750 OFFCURVE",
"492 750 CURVE SMOOTH",
"249 750 OFFCURVE",
"90 606 OFFCURVE",
"90 381 CURVE SMOOTH",
"90 308 OFFCURVE",
"109 240 OFFCURVE",
"146 178 CURVE SMOOTH",
"221 54 OFFCURVE",
"361 -20 OFFCURVE",
"518 -20 CURVE SMOOTH"
);
},
{
closed = 1;
nodes = (
"377 129 OFFCURVE",
"276 231 OFFCURVE",
"276 371 CURVE SMOOTH",
"276 516 OFFCURVE",
"365 604 OFFCURVE",
"512 604 CURVE SMOOTH",
"663 604 OFFCURVE",
"772 512 OFFCURVE",
"772 393 CURVE SMOOTH",
"772 242 OFFCURVE",
"668 129 OFFCURVE",
"520 129 CURVE SMOOTH"
);
}
);
width = 1092;
}
);
note = g44;
},
{
glyphname = g45;
lastChange = "2016-11-10 14:01:58 +0000";
layers = (
{
layerId = "8FACA99C-1A90-46DE-9F50-66410175F95F";
paths = (
{
closed = 1;
nodes = (
"700 -20 OFFCURVE",
"822 5 OFFCURVE",
"915 55 CURVE",
"915 213 LINE",
"782 150 OFFCURVE",
"672 127 OFFCURVE",
"559 127 CURVE SMOOTH",
"368 127 OFFCURVE",
"268 190 OFFCURVE",
"268 309 CURVE SMOOTH",
"268 435 OFFCURVE",
"371 498 OFFCURVE",
"578 498 CURVE SMOOTH",
"727 498 LINE",
"727 645 LINE",
"612 645 LINE SMOOTH",
"403 645 OFFCURVE",
"299 701 OFFCURVE",
"299 813 CURVE SMOOTH",
"299 917 OFFCURVE",
"382 969 OFFCURVE",
"547 969 CURVE SMOOTH",
"646 969 OFFCURVE",
"720 956 OFFCURVE",
"852 897 CURVE",
"920 1040 LINE",
"804 1095 OFFCURVE",
"697 1118 OFFCURVE",
"549 1118 CURVE SMOOTH",
"294 1118 OFFCURVE",
"127 1007 OFFCURVE",
"127 827 CURVE SMOOTH",
"127 703 OFFCURVE",
"200 615 OFFCURVE",
"332 578 CURVE",
"332 567 LINE",
"157 516 OFFCURVE",
"88 431 OFFCURVE",
"88 299 CURVE SMOOTH",
"88 102 OFFCURVE",
"256 -20 OFFCURVE",
"549 -20 CURVE SMOOTH"
);
}
);
width = 1001;
}
);
note = g45;
},
{
glyphname = g46;
lastChange = "2016-11-10 14:01:58 +0000";
layers = (
{
layerId = "8FACA99C-1A90-46DE-9F50-66410175F95F";
paths = (
{
closed = 1;
nodes = (
"825 -18 OFFCURVE",
"1012 192 OFFCURVE",
"1012 549 CURVE SMOOTH",
"1012 924 OFFCURVE",
"847 1118 OFFCURVE",
"535 1118 CURVE SMOOTH",
"290 1118 OFFCURVE",
"131 999 OFFCURVE",
"131 815 CURVE SMOOTH",
"131 699 OFFCURVE",
"205 612 OFFCURVE",
"326 571 CURVE",
"182 532 OFFCURVE",
"88 446 OFFCURVE",
"88 299 CURVE SMOOTH",
"88 102 OFFCURVE",
"244 -18 OFFCURVE",
"500 -18 CURVE SMOOTH"
);
},
{
closed = 1;
nodes = (
"351 127 OFFCURVE",
"266 195 OFFCURVE",
"266 303 CURVE SMOOTH",
"266 432 OFFCURVE",
"381 496 OFFCURVE",
"610 496 CURVE SMOOTH",
"694 496 LINE",
"694 641 LINE",
"618 641 LINE SMOOTH",
"399 641 OFFCURVE",
"309 692 OFFCURVE",
"309 809 CURVE SMOOTH",
"309 909 OFFCURVE",
"385 971 OFFCURVE",
"530 971 CURVE SMOOTH",
"728 971 OFFCURVE",
"827 830 OFFCURVE",
"827 549 CURVE SMOOTH",
"827 269 OFFCURVE",
"717 127 OFFCURVE",
"508 127 CURVE SMOOTH"
);
}
);
width = 1124;
}
);
note = g46;
},
{
glyphname = g47;
lastChange = "2016-11-10 14:01:58 +0000";
layers = (
{
layerId = "8FACA99C-1A90-46DE-9F50-66410175F95F";
paths = (
{
closed = 1;
nodes = (
"939 -20 OFFCURVE",
"1128 197 OFFCURVE",
"1128 549 CURVE SMOOTH",
"1128 902 OFFCURVE",
"936 1118 OFFCURVE",
"623 1118 CURVE SMOOTH",
"302 1118 OFFCURVE",
"113 911 OFFCURVE",
"113 551 CURVE SMOOTH",
"113 202 OFFCURVE",
"311 -20 OFFCURVE",
"616 -20 CURVE SMOOTH"
);
},
{
closed = 1;
nodes = (
"412 129 OFFCURVE",
"299 272 OFFCURVE",
"299 549 CURVE SMOOTH",
"299 782 OFFCURVE",
"375 917 OFFCURVE",
"526 956 CURVE",
"510 903 OFFCURVE",
"502 850 OFFCURVE",
"502 799 CURVE SMOOTH",
"502 562 OFFCURVE",
"619 451 OFFCURVE",
"858 451 CURVE SMOOTH",
"871 451 OFFCURVE",
"898 454 OFFCURVE",
"938 459 CURVE",
"913 242 OFFCURVE",
"805 129 OFFCURVE",
"621 129 CURVE SMOOTH"
);
},
{
closed = 1;
nodes = (
"690 555 OFFCURVE",
"621 627 OFFCURVE",
"621 819 CURVE SMOOTH",
"621 879 OFFCURVE",
"632 942 OFFCURVE",
"641 967 CURVE",
"838 953 OFFCURVE",
"939 818 OFFCURVE",
"942 561 CURVE",
"916 557 OFFCURVE",
"892 555 OFFCURVE",
"870 555 CURVE SMOOTH"
);
}
);
width = 1241;
}
);
note = g47;
},
{
glyphname = g48;
lastChange = "2016-11-10 14:01:58 +0000";
layers = (
{
layerId = "8FACA99C-1A90-46DE-9F50-66410175F95F";
paths = (
{
closed = 1;
nodes = (
"936 -20 OFFCURVE",
"1128 192 OFFCURVE",
"1128 551 CURVE SMOOTH",
"1128 900 OFFCURVE",
"932 1118 OFFCURVE",
"623 1118 CURVE SMOOTH",
"300 1118 OFFCURVE",
"113 908 OFFCURVE",
"113 551 CURVE SMOOTH",
"113 436 OFFCURVE",
"134 336 OFFCURVE",
"175 249 CURVE SMOOTH",
"258 76 OFFCURVE",
"417 -20 OFFCURVE",
"616 -20 CURVE SMOOTH"
);
},
{
closed = 1;
nodes = (
"409 129 OFFCURVE",
"299 275 OFFCURVE",
"299 551 CURVE SMOOTH",
"299 828 OFFCURVE",
"405 967 OFFCURVE",
"618 967 CURVE SMOOTH",
"830 967 OFFCURVE",
"942 827 OFFCURVE",
"942 551 CURVE SMOOTH",
"942 275 OFFCURVE",
"830 129 OFFCURVE",
"621 129 CURVE SMOOTH"
);
}
);
width = 1239;
}
);
note = g48;
},
{
glyphname = g49;
lastChange = "2016-11-10 14:01:58 +0000";
layers = (
{
layerId = "8FACA99C-1A90-46DE-9F50-66410175F95F";
paths = (
{
closed = 1;
nodes = (
"936 -20 OFFCURVE",
"1128 192 OFFCURVE",
"1128 551 CURVE SMOOTH",
"1128 900 OFFCURVE",
"932 1118 OFFCURVE",
"623 1118 CURVE SMOOTH",
"300 1118 OFFCURVE",
"113 908 OFFCURVE",
"113 551 CURVE SMOOTH",
"113 436 OFFCURVE",
"134 336 OFFCURVE",
"175 249 CURVE SMOOTH",
"258 76 OFFCURVE",
"417 -20 OFFCURVE",
"616 -20 CURVE SMOOTH"
);
},
{
closed = 1;
nodes = (
"392 156 OFFCURVE",
"299 298 OFFCURVE",
"299 551 CURVE SMOOTH",
"299 802 OFFCURVE",
"390 940 OFFCURVE",
"565 963 CURVE",
"565 133 LINE"
);
},
{
closed = 1;
nodes = (
"676 963 LINE",
"849 938 OFFCURVE",
"942 796 OFFCURVE",
"942 551 CURVE SMOOTH",
"942 312 OFFCURVE",
"857 158 OFFCURVE",
"676 133 CURVE"
);
}
);
width = 1241;
}
);
note = g49;
},
{
glyphname = g50;
lastChange = "2016-11-10 14:01:58 +0000";
layers = (
{
layerId = "8FACA99C-1A90-46DE-9F50-66410175F95F";
paths = (
{
closed = 1;
nodes = (
"502 0 LINE",
"502 434 LINE",
"715 319 LINE",
"788 471 LINE",
"502 625 LINE",
"502 1098 LINE",
"322 1098 LINE",
"322 721 LINE",
"111 838 LINE",
"31 686 LINE",
"322 526 LINE",
"322 0 LINE"
);
}
);
width = 819;
}
);
note = g50;
},
{
glyphname = g51;
lastChange = "2016-11-10 14:01:58 +0000";
layers = (
{
layerId = "8FACA99C-1A90-46DE-9F50-66410175F95F";
paths = (
{
closed = 1;
nodes = (
"227 98 OFFCURVE",
"317 164 OFFCURVE",
"442 164 CURVE SMOOTH",
"567 164 OFFCURVE",
"670 103 OFFCURVE",
"719 0 CURVE",
"893 0 LINE",
"893 1098 LINE",
"713 1098 LINE",
"713 223 LINE",
"650 286 OFFCURVE",
"549 326 OFFCURVE",
"442 326 CURVE SMOOTH",
"242 326 OFFCURVE",
"85 213 OFFCURVE",
"20 18 CURVE",
"184 -31 LINE"
);
}
);
width = 1067;
}
);
note = g51;
},
{
glyphname = g52;
lastChange = "2016-11-10 14:01:58 +0000";
layers = (
{
layerId = "8FACA99C-1A90-46DE-9F50-66410175F95F";
paths = (
{
closed = 1;
nodes = (
"819 0 LINE",
"819 1098 LINE",
"639 1098 LINE",
"639 193 LINE",
"121 426 LINE",
"29 283 LINE",
"655 0 LINE"
);
}
);
width = 993;
}
);
note = g52;
},
{
glyphname = g53;
lastChange = "2016-11-10 14:01:58 +0000";
layers = (
{
layerId = "8FACA99C-1A90-46DE-9F50-66410175F95F";
paths = (
{
closed = 1;
nodes = (
"492 0 LINE",
"659 260 LINE",
"924 0 LINE",
"1090 0 LINE",
"1090 1098 LINE",
"909 1098 LINE",
"909 238 LINE",
"707 444 LINE",
"594 444 LINE",
"420 182 LINE",
"145 461 LINE",
"20 344 LINE",
"365 0 LINE"
);
}
);
width = 1264;
}
);
note = g53;
},
{
glyphname = g54;
lastChange = "2016-11-10 14:01:58 +0000";
layers = (
{
layerId = "8FACA99C-1A90-46DE-9F50-66410175F95F";
paths = (
{
closed = 1;
nodes = (
"354 0 LINE",
"354 874 LINE",
"418 810 OFFCURVE",
"521 772 OFFCURVE",
"625 772 CURVE SMOOTH",
"824 772 OFFCURVE",
"980 882 OFFCURVE",
"1047 1079 CURVE",
"883 1128 LINE",
"840 999 OFFCURVE",
"754 934 OFFCURVE",
"625 934 CURVE SMOOTH",
"500 934 OFFCURVE",
"397 995 OFFCURVE",
"348 1098 CURVE",
"174 1098 LINE",
"174 0 LINE"
);
}
);
width = 1067;
}
);
note = g54;
},
{
glyphname = g55;
lastChange = "2016-11-10 14:01:58 +0000";
layers = (
{
layerId = "8FACA99C-1A90-46DE-9F50-66410175F95F";
paths = (
{
closed = 1;
nodes = (
"911 0 LINE",
"911 717 LINE SMOOTH",
"911 981 OFFCURVE",
"758 1114 OFFCURVE",
"494 1114 CURVE SMOOTH",
"258 1114 OFFCURVE",
"111 979 OFFCURVE",
"111 766 CURVE SMOOTH",
"111 539 OFFCURVE",
"281 414 OFFCURVE",
"600 414 CURVE SMOOTH",
"731 414 LINE",
"731 0 LINE"
);
},
{
closed = 1;
nodes = (
"391 561 OFFCURVE",
"295 626 OFFCURVE",
"295 774 CURVE SMOOTH",
"295 890 OFFCURVE",
"376 967 OFFCURVE",
"504 967 CURVE SMOOTH",
"655 967 OFFCURVE",
"731 880 OFFCURVE",
"731 705 CURVE SMOOTH",
"731 561 LINE",
"627 561 LINE SMOOTH"
);
}
);
width = 1077;
}
);
note = g55;
},
{
glyphname = g56;
lastChange = "2016-11-10 14:01:58 +0000";
layers = (
{
layerId = "8FACA99C-1A90-46DE-9F50-66410175F95F";
paths = (
{
closed = 1;
nodes = (
"1019 37 OFFCURVE",
"1108 147 OFFCURVE",
"1108 291 CURVE SMOOTH",
"1108 479 OFFCURVE",
"952 611 OFFCURVE",
"705 631 CURVE",
"705 1098 LINE",
"524 1098 LINE",
"524 633 LINE",
"260 616 OFFCURVE",
"82 478 OFFCURVE",
"82 283 CURVE SMOOTH",
"82 96 OFFCURVE",
"196 -16 OFFCURVE",
"387 -16 CURVE SMOOTH",
"590 -16 OFFCURVE",
"705 110 OFFCURVE",
"705 307 CURVE SMOOTH",
"705 479 LINE",
"844 460 OFFCURVE",
"924 388 OFFCURVE",
"924 283 CURVE SMOOTH",
"924 200 OFFCURVE",
"881 142 OFFCURVE",
"795 109 CURVE",
"864 -18 LINE"
);
},
{
closed = 1;
nodes = (
"314 131 OFFCURVE",
"266 180 OFFCURVE",
"266 276 CURVE SMOOTH",
"266 396 OFFCURVE",
"353 475 OFFCURVE",
"524 487 CURVE",
"524 295 LINE SMOOTH",
"524 196 OFFCURVE",
"481 131 OFFCURVE",
"393 131 CURVE SMOOTH"
);
}
);
width = 1190;
}
);
note = g56;
},
{
glyphname = g57;
lastChange = "2016-11-10 14:01:58 +0000";
layers = (
{
layerId = "8FACA99C-1A90-46DE-9F50-66410175F95F";
paths = (
{
closed = 1;
nodes = (
"825 -18 OFFCURVE",
"1012 192 OFFCURVE",
"1012 549 CURVE SMOOTH",
"1012 924 OFFCURVE",
"847 1118 OFFCURVE",
"535 1118 CURVE SMOOTH",
"290 1118 OFFCURVE",
"131 996 OFFCURVE",
"131 815 CURVE SMOOTH",
"131 699 OFFCURVE",
"205 612 OFFCURVE",
"326 571 CURVE",
"182 532 OFFCURVE",
"88 446 OFFCURVE",
"88 299 CURVE SMOOTH",
"88 102 OFFCURVE",
"244 -18 OFFCURVE",
"500 -18 CURVE SMOOTH"
);
},
{
closed = 1;
nodes = (
"364 127 OFFCURVE",
"266 191 OFFCURVE",
"266 303 CURVE SMOOTH",
"266 432 OFFCURVE",
"381 496 OFFCURVE",
"610 496 CURVE SMOOTH",
"825 496 LINE",
"817 256 OFFCURVE",
"704 127 OFFCURVE",
"508 127 CURVE SMOOTH"
);
},
{
closed = 1;
nodes = (
"390 635 OFFCURVE",
"301 695 OFFCURVE",
"301 815 CURVE SMOOTH",
"301 919 OFFCURVE",
"373 979 OFFCURVE",
"502 983 CURVE",
"488 942 OFFCURVE",
"481 898 OFFCURVE",
"481 850 CURVE SMOOTH",
"481 767 OFFCURVE",
"512 688 OFFCURVE",
"569 635 CURVE"
);
},
{
closed = 1;
nodes = (
"639 678 OFFCURVE",
"594 763 OFFCURVE",
"594 858 CURVE SMOOTH",
"594 907 OFFCURVE",
"600 948 OFFCURVE",
"612 981 CURVE",
"736 948 OFFCURVE",
"810 828 OFFCURVE",
"825 635 CURVE",
"707 635 LINE"
);
}
);
width = 1124;
}
);
note = g57;
},
{
glyphname = g58;
lastChange = "2016-11-10 14:01:58 +0000";
layers = (
{
layerId = "8FACA99C-1A90-46DE-9F50-66410175F95F";
paths = (
{
closed = 1;
nodes = (
"551 -20 OFFCURVE",
"629 36 OFFCURVE",
"670 147 CURVE",
"701 44 OFFCURVE",
"783 -20 OFFCURVE",
"903 -20 CURVE SMOOTH",
"1115 -20 OFFCURVE",
"1221 158 OFFCURVE",
"1221 514 CURVE SMOOTH",
"1221 723 OFFCURVE",
"1189 893 OFFCURVE",
"1114 1098 CURVE",
"928 1098 LINE",
"1015 855 OFFCURVE",
"1040 697 OFFCURVE",
"1040 512 CURVE SMOOTH",
"1040 257 OFFCURVE",
"988 129 OFFCURVE",
"883 129 CURVE SMOOTH",
"800 129 OFFCURVE",
"758 216 OFFCURVE",
"758 391 CURVE SMOOTH",
"758 655 LINE",
"586 655 LINE",
"586 391 LINE SMOOTH",
"586 216 OFFCURVE",
"542 129 OFFCURVE",
"455 129 CURVE SMOOTH",
"405 129 OFFCURVE",
"367 161 OFFCURVE",
"340 224 CURVE SMOOTH",
"313 287 OFFCURVE",
"299 383 OFFCURVE",
"299 512 CURVE SMOOTH",
"299 723 OFFCURVE",
"350 911 OFFCURVE",
"414 1098 CURVE",
"229 1098 LINE",
"152 885 OFFCURVE",
"119 714 OFFCURVE",
"119 514 CURVE SMOOTH",
"119 158 OFFCURVE",
"221 -20 OFFCURVE",
"434 -20 CURVE SMOOTH"
);
}
);
width = 1339;
}
);
note = g58;
},
{
glyphname = g59;
lastChange = "2016-11-10 14:01:58 +0000";
layers = (
{
layerId = "8FACA99C-1A90-46DE-9F50-66410175F95F";
paths = (
{
closed = 1;
nodes = (
"848 0 LINE",
"1014 516 LINE",
"1167 549 OFFCURVE",
"1308 625 OFFCURVE",
"1405 725 CURVE",
"1303 821 LINE",
"1228 744 OFFCURVE",
"1137 686 OFFCURVE",
"1057 659 CURVE",
"1194 1098 LINE",
"1012 1098 LINE",
"868 623 LINE",
"830 620 OFFCURVE",
"795 618 OFFCURVE",
"762 618 CURVE SMOOTH",
"717 618 OFFCURVE",
"637 626 OFFCURVE",
"625 629 CURVE",
"561 860 LINE SMOOTH",
"512 1039 OFFCURVE",
"430 1112 OFFCURVE",
"287 1112 CURVE SMOOTH",
"155 1112 OFFCURVE",
"61 1024 OFFCURVE",
"61 895 CURVE SMOOTH",
"61 719 OFFCURVE",
"222 577 OFFCURVE",
"485 522 CURVE",
"633 0 LINE"
);
},
{
closed = 1;
nodes = (
"659 498 LINE",
"760 494 LINE",
"798 494 LINE",
"834 496 LINE",
"743 199 LINE"
);
},
{
closed = 1;
nodes = (
"322 697 OFFCURVE",
"225 798 OFFCURVE",
"225 893 CURVE SMOOTH",
"225 949 OFFCURVE",
"256 971 OFFCURVE",
"293 971 CURVE SMOOTH",
"332 971 OFFCURVE",
"363 934 OFFCURVE",
"387 860 CURVE SMOOTH",
"449 662 LINE"
);
}
);
width = 1440;
}
);
note = g59;
},
{
glyphname = g60;
lastChange = "2016-11-10 14:01:58 +0000";
layers = (
{
layerId = "8FACA99C-1A90-46DE-9F50-66410175F95F";
paths = (
{
closed = 1;
nodes = (
"666 0 LINE",
"666 465 LINE",
"934 484 OFFCURVE",
"1108 620 OFFCURVE",
"1108 815 CURVE SMOOTH",
"1108 1004 OFFCURVE",
"990 1114 OFFCURVE",
"803 1114 CURVE SMOOTH",
"600 1114 OFFCURVE",
"485 988 OFFCURVE",
"485 791 CURVE SMOOTH",
"485 618 LINE",
"348 637 OFFCURVE",
"266 710 OFFCURVE",
"266 815 CURVE SMOOTH",
"266 896 OFFCURVE",
"309 954 OFFCURVE",
"395 989 CURVE",
"326 1116 LINE",
"171 1061 OFFCURVE",
"82 951 OFFCURVE",
"82 807 CURVE SMOOTH",
"82 619 OFFCURVE",
"240 484 OFFCURVE",
"485 467 CURVE",
"485 0 LINE"
);
},
{
closed = 1;
nodes = (
"666 803 LINE SMOOTH",
"666 902 OFFCURVE",
"709 967 OFFCURVE",
"797 967 CURVE SMOOTH",
"874 967 OFFCURVE",
"924 918 OFFCURVE",
"924 821 CURVE SMOOTH",
"924 701 OFFCURVE",
"837 623 OFFCURVE",
"666 610 CURVE"
);
}
);
width = 1190;
}
);
note = g60;
},
{
glyphname = g61;
lastChange = "2016-11-10 14:01:58 +0000";
layers = (
{
layerId = "8FACA99C-1A90-46DE-9F50-66410175F95F";
paths = (
{
closed = 1;
nodes = (
"719 0 LINE",
"719 1098 LINE",
"31 1098 LINE",
"31 946 LINE",
"539 946 LINE",
"539 0 LINE"
);
}
);
width = 893;
}
);
note = g61;
},
{
glyphname = g62;
lastChange = "2016-11-10 14:01:58 +0000";
layers = (
{
layerId = "8FACA99C-1A90-46DE-9F50-66410175F95F";
paths = (
{
closed = 1;
nodes = (
"632 -18 OFFCURVE",
"749 38 OFFCURVE",
"831 150 CURVE",
"831 0 LINE",
"1012 0 LINE",
"1012 1098 LINE",
"831 1098 LINE",
"831 973 LINE",
"758 1070 OFFCURVE",
"654 1118 OFFCURVE",
"518 1118 CURVE SMOOTH",
"289 1118 OFFCURVE",
"131 998 OFFCURVE",
"131 815 CURVE SMOOTH",
"131 699 OFFCURVE",
"205 612 OFFCURVE",
"326 571 CURVE",
"182 532 OFFCURVE",
"88 446 OFFCURVE",
"88 299 CURVE SMOOTH",
"88 106 OFFCURVE",
"240 -18 OFFCURVE",
"479 -18 CURVE SMOOTH"
);
},
{
closed = 1;
nodes = (
"351 127 OFFCURVE",
"266 195 OFFCURVE",
"266 303 CURVE SMOOTH",
"266 432 OFFCURVE",
"381 496 OFFCURVE",
"610 496 CURVE SMOOTH",
"694 496 LINE",
"694 641 LINE",
"618 641 LINE SMOOTH",
"399 641 OFFCURVE",
"309 692 OFFCURVE",
"309 809 CURVE SMOOTH",
"309 909 OFFCURVE",
"385 971 OFFCURVE",
"530 971 CURVE SMOOTH",
"725 971 OFFCURVE",
"825 836 OFFCURVE",
"831 567 CURVE SMOOTH",
"831 528 LINE SMOOTH",
"826 269 OFFCURVE",
"716 127 OFFCURVE",
"508 127 CURVE SMOOTH"
);
}
);
width = 1161;
}
);
note = g62;
},
{
glyphname = g63;
lastChange = "2016-11-10 14:01:58 +0000";
layers = (
{
layerId = "8FACA99C-1A90-46DE-9F50-66410175F95F";
paths = (
{
closed = 1;
nodes = (
"885 0 LINE",
"885 705 LINE SMOOTH",
"885 979 OFFCURVE",
"747 1116 OFFCURVE",
"471 1116 CURVE SMOOTH",
"180 1116 OFFCURVE",
"31 965 OFFCURVE",
"31 670 CURVE",
"205 670 LINE",
"205 869 OFFCURVE",
"284 967 OFFCURVE",
"463 967 CURVE SMOOTH",
"630 967 OFFCURVE",
"707 877 OFFCURVE",
"707 678 CURVE SMOOTH",
"707 0 LINE"
);
}
);
width = 1059;
}
);
note = g63;
},
{
glyphname = g64;
lastChange = "2016-11-10 14:01:58 +0000";
layers = (
{
layerId = "8FACA99C-1A90-46DE-9F50-66410175F95F";
paths = (
{
closed = 1;
nodes = (
"655 -18 OFFCURVE",
"751 41 OFFCURVE",
"809 160 CURVE",
"809 0 LINE",
"991 0 LINE",
"991 1098 LINE",
"809 1098 LINE",
"809 954 LINE",
"760 1059 OFFCURVE",
"658 1118 OFFCURVE",
"541 1118 CURVE SMOOTH",
"265 1118 OFFCURVE",
"113 916 OFFCURVE",
"113 549 CURVE SMOOTH",
"113 192 OFFCURVE",
"257 -18 OFFCURVE",
"520 -18 CURVE SMOOTH"
);
},
{
closed = 1;
nodes = (
"405 131 OFFCURVE",
"308 271 OFFCURVE",
"299 500 CURVE",
"355 412 OFFCURVE",
"456 358 OFFCURVE",
"563 358 CURVE SMOOTH",
"664 358 OFFCURVE",
"753 405 OFFCURVE",
"809 492 CURVE",
"809 330 LINE",
"777 213 OFFCURVE",
"680 131 OFFCURVE",
"557 131 CURVE SMOOTH"
);
},
{
closed = 1;
nodes = (
"520 481 OFFCURVE",
"476 492 OFFCURVE",
"437 514 CURVE SMOOTH",
"359 558 OFFCURVE",
"313 639 OFFCURVE",
"313 719 CURVE SMOOTH",
"313 856 OFFCURVE",
"419 971 OFFCURVE",
"555 971 CURVE SMOOTH",
"704 971 OFFCURVE",
"809 870 OFFCURVE",
"809 727 CURVE SMOOTH",
"809 592 OFFCURVE",
"703 481 OFFCURVE",
"571 481 CURVE SMOOTH"
);
}
);
width = 1165;
}
);
note = g64;
},
{
glyphname = g65;
lastChange = "2016-11-10 14:01:58 +0000";
layers = (
{
layerId = "8FACA99C-1A90-46DE-9F50-66410175F95F";
paths = (
{
closed = 1;
nodes = (
"727 -20 OFFCURVE",
"821 0 OFFCURVE",
"897 39 CURVE",
"897 199 LINE",
"804 156 OFFCURVE",
"709 135 OFFCURVE",
"612 135 CURVE SMOOTH",
"405 135 OFFCURVE",
"299 280 OFFCURVE",
"299 545 CURVE SMOOTH",
"299 821 OFFCURVE",
"402 961 OFFCURVE",
"623 961 CURVE SMOOTH",
"688 961 OFFCURVE",
"767 944 OFFCURVE",
"860 909 CURVE",
"915 1059 LINE",
"847 1094 OFFCURVE",
"734 1118 OFFCURVE",
"627 1118 CURVE SMOOTH",
"298 1118 OFFCURVE",
"113 911 OFFCURVE",
"113 543 CURVE SMOOTH",
"113 180 OFFCURVE",
"298 -20 OFFCURVE",
"614 -20 CURVE SMOOTH"
);
}
);
width = 983;
}
);
note = g65;
},
{
glyphname = g66;
lastChange = "2016-11-10 14:01:58 +0000";
layers = (
{
layerId = "8FACA99C-1A90-46DE-9F50-66410175F95F";
paths = (
{
closed = 1;
nodes = (
"563 0 LINE",
"856 477 LINE",
"739 571 LINE",
"694 535 OFFCURVE",
"603 510 OFFCURVE",
"524 510 CURVE SMOOTH",
"371 510 OFFCURVE",
"281 590 OFFCURVE",
"281 729 CURVE SMOOTH",
"281 880 OFFCURVE",
"382 967 OFFCURVE",
"547 967 CURVE SMOOTH",
"628 967 OFFCURVE",
"710 942 OFFCURVE",
"791 893 CURVE",
"870 1026 LINE",
"789 1081 OFFCURVE",
"670 1114 OFFCURVE",
"555 1114 CURVE SMOOTH",
"279 1114 OFFCURVE",
"96 961 OFFCURVE",
"96 725 CURVE SMOOTH",
"96 498 OFFCURVE",
"248 365 OFFCURVE",
"487 365 CURVE SMOOTH",
"533 365 OFFCURVE",
"573 369 OFFCURVE",
"608 377 CURVE",
"354 0 LINE"
);
}
);
width = 948;
}
);
note = g66;
},
{
glyphname = g67;
lastChange = "2016-11-10 14:01:58 +0000";
layers = (
{
layerId = "8FACA99C-1A90-46DE-9F50-66410175F95F";
paths = (
{
closed = 1;
nodes = (
"551 -20 OFFCURVE",
"629 36 OFFCURVE",
"670 147 CURVE",
"701 44 OFFCURVE",
"783 -20 OFFCURVE",
"903 -20 CURVE SMOOTH",
"1115 -20 OFFCURVE",
"1221 158 OFFCURVE",
"1221 514 CURVE SMOOTH",
"1221 886 OFFCURVE",
"1013 1114 OFFCURVE",
"672 1114 CURVE SMOOTH",
"559 1114 OFFCURVE",
"460 1089 OFFCURVE",
"377 1040 CURVE SMOOTH",
"210 941 OFFCURVE",
"119 753 OFFCURVE",
"119 514 CURVE SMOOTH",
"119 158 OFFCURVE",
"221 -20 OFFCURVE",
"434 -20 CURVE SMOOTH"
);
},
{
closed = 1;
nodes = (
"405 129 OFFCURVE",
"367 161 OFFCURVE",
"340 224 CURVE SMOOTH",
"313 287 OFFCURVE",
"299 383 OFFCURVE",
"299 512 CURVE SMOOTH",
"299 807 OFFCURVE",
"426 965 OFFCURVE",
"670 965 CURVE SMOOTH",
"913 965 OFFCURVE",
"1040 808 OFFCURVE",
"1040 512 CURVE SMOOTH",
"1040 257 OFFCURVE",
"988 129 OFFCURVE",
"883 129 CURVE SMOOTH",
"800 129 OFFCURVE",
"758 216 OFFCURVE",
"758 391 CURVE SMOOTH",
"758 655 LINE",
"586 655 LINE",
"586 391 LINE SMOOTH",
"586 216 OFFCURVE",
"542 129 OFFCURVE",
"455 129 CURVE SMOOTH"
);
}
);
width = 1339;
}
);
note = g67;
},
{
glyphname = g68;
lastChange = "2016-11-10 14:01:58 +0000";
layers = (
{
layerId = "8FACA99C-1A90-46DE-9F50-66410175F95F";
paths = (
{
closed = 1;
nodes = (
"551 -20 OFFCURVE",
"629 36 OFFCURVE",
"670 147 CURVE",
"701 44 OFFCURVE",
"783 -20 OFFCURVE",
"903 -20 CURVE SMOOTH",
"1115 -20 OFFCURVE",
"1221 158 OFFCURVE",
"1221 514 CURVE SMOOTH",
"1221 886 OFFCURVE",
"1013 1114 OFFCURVE",
"672 1114 CURVE SMOOTH",
"559 1114 OFFCURVE",
"460 1089 OFFCURVE",
"377 1040 CURVE SMOOTH",
"210 941 OFFCURVE",
"119 753 OFFCURVE",
"119 514 CURVE SMOOTH",
"119 158 OFFCURVE",
"221 -20 OFFCURVE",
"434 -20 CURVE SMOOTH"
);
},
{
closed = 1;
nodes = (
"405 129 OFFCURVE",
"367 161 OFFCURVE",
"340 224 CURVE SMOOTH",
"313 287 OFFCURVE",
"299 383 OFFCURVE",
"299 512 CURVE SMOOTH",
"299 763 OFFCURVE",
"388 911 OFFCURVE",
"567 954 CURVE",
"560 921 OFFCURVE",
"557 885 OFFCURVE",
"557 846 CURVE SMOOTH",
"557 623 OFFCURVE",
"684 512 OFFCURVE",
"905 512 CURVE SMOOTH",
"956 512 OFFCURVE",
"1001 516 OFFCURVE",
"1040 524 CURVE",
"1040 261 OFFCURVE",
"988 129 OFFCURVE",
"883 129 CURVE SMOOTH",
"800 129 OFFCURVE",
"758 216 OFFCURVE",
"758 391 CURVE SMOOTH",
"758 457 LINE",
"586 457 LINE",
"586 391 LINE SMOOTH",
"586 216 OFFCURVE",
"542 129 OFFCURVE",
"455 129 CURVE SMOOTH"
);
},
{
closed = 1;
nodes = (
"746 616 OFFCURVE",
"676 687 OFFCURVE",
"676 874 CURVE SMOOTH",
"676 906 OFFCURVE",
"679 936 OFFCURVE",
"684 965 CURVE",
"885 958 OFFCURVE",
"1002 845 OFFCURVE",
"1034 627 CURVE",
"1011 623 OFFCURVE",
"967 616 OFFCURVE",
"926 616 CURVE SMOOTH"
);
}
);
width = 1339;
}
);
note = g68;
},
{
glyphname = g69;
lastChange = "2016-11-10 14:01:58 +0000";
layers = (
{
layerId = "8FACA99C-1A90-46DE-9F50-66410175F95F";
paths = (
{
closed = 1;
nodes = (
"346 0 LINE",
"346 414 LINE",
"477 414 LINE SMOOTH",
"794 414 OFFCURVE",
"967 538 OFFCURVE",
"967 766 CURVE SMOOTH",
"967 981 OFFCURVE",
"820 1114 OFFCURVE",
"584 1114 CURVE SMOOTH",
"319 1114 OFFCURVE",
"166 981 OFFCURVE",
"166 717 CURVE SMOOTH",
"166 0 LINE"
);
},
{
closed = 1;
nodes = (
"346 705 LINE SMOOTH",
"346 880 OFFCURVE",
"422 967 OFFCURVE",
"573 967 CURVE SMOOTH",
"704 967 OFFCURVE",
"782 890 OFFCURVE",
"782 774 CURVE SMOOTH",
"782 623 OFFCURVE",
"686 561 OFFCURVE",
"451 561 CURVE SMOOTH",
"346 561 LINE"
);
}
);
width = 1077;
}
);
note = g69;
},
{
glyphname = g70;
lastChange = "2016-11-10 14:01:58 +0000";
layers = (
{
layerId = "8FACA99C-1A90-46DE-9F50-66410175F95F";
paths = (
{
closed = 1;
nodes = (
"724 -16 OFFCURVE",
"907 119 OFFCURVE",
"907 315 CURVE SMOOTH",
"907 448 OFFCURVE",
"826 534 OFFCURVE",
"664 575 CURVE",
"796 622 OFFCURVE",
"862 712 OFFCURVE",
"862 831 CURVE SMOOTH",
"862 1006 OFFCURVE",
"731 1112 OFFCURVE",
"459 1112 CURVE SMOOTH",
"328 1112 OFFCURVE",
"202 1079 OFFCURVE",
"82 1014 CURVE",
"160 887 LINE",
"251 942 OFFCURVE",
"345 969 OFFCURVE",
"442 969 CURVE SMOOTH",
"601 969 OFFCURVE",
"674 907 OFFCURVE",
"674 807 CURVE SMOOTH",
"674 696 OFFCURVE",
"580 639 OFFCURVE",
"352 639 CURVE SMOOTH",
"266 639 LINE",
"266 496 LINE",
"397 496 LINE SMOOTH",
"614 496 OFFCURVE",
"717 436 OFFCURVE",
"717 305 CURVE SMOOTH",
"717 196 OFFCURVE",
"617 127 OFFCURVE",
"436 127 CURVE SMOOTH",
"330 127 OFFCURVE",
"215 150 OFFCURVE",
"92 197 CURVE",
"92 49 LINE",
"189 6 OFFCURVE",
"307 -16 OFFCURVE",
"444 -16 CURVE SMOOTH"
);
}
);
width = 995;
}
);
note = g70;
},
{
glyphname = g71;
lastChange = "2016-11-10 14:01:58 +0000";
layers = (
{
layerId = "8FACA99C-1A90-46DE-9F50-66410175F95F";
paths = (
{
closed = 1;
nodes = (
"862 0 LINE",
"862 152 LINE",
"354 152 LINE",
"354 1098 LINE",
"174 1098 LINE",
"174 0 LINE"
);
}
);
width = 893;
}
);
note = g71;
},
{
glyphname = g72;
lastChange = "2016-11-10 14:01:58 +0000";
layers = (
{
layerId = "8FACA99C-1A90-46DE-9F50-66410175F95F";
paths = (
{
closed = 1;
nodes = (
"649 -23 OFFCURVE",
"758 75 OFFCURVE",
"758 223 CURVE SMOOTH",
"758 280 OFFCURVE",
"737 343 OFFCURVE",
"701 408 CURVE SMOOTH",
"682 441 OFFCURVE",
"647 491 OFFCURVE",
"596 559 CURVE",
"995 1098 LINE",
"793 1098 LINE",
"489 684 LINE",
"180 1098 LINE",
"-25 1098 LINE",
"389 557 LINE",
"336 484 OFFCURVE",
"300 431 OFFCURVE",
"283 400 CURVE SMOOTH",
"248 336 OFFCURVE",
"229 274 OFFCURVE",
"229 217 CURVE SMOOTH",
"229 62 OFFCURVE",
"332 -23 OFFCURVE",
"492 -23 CURVE SMOOTH"
);
},
{
closed = 1;
nodes = (
"426 117 OFFCURVE",
"389 158 OFFCURVE",
"389 217 CURVE SMOOTH",
"389 277 OFFCURVE",
"424 359 OFFCURVE",
"487 438 CURVE",
"551 362 OFFCURVE",
"596 280 OFFCURVE",
"596 221 CURVE SMOOTH",
"596 164 OFFCURVE",
"561 117 OFFCURVE",
"489 117 CURVE SMOOTH"
);
}
);
width = 971;
}
);
note = g72;
},
{
glyphname = g73;
lastChange = "2016-11-10 14:01:58 +0000";
layers = (
{
layerId = "8FACA99C-1A90-46DE-9F50-66410175F95F";
paths = (
{
closed = 1;
nodes = (
"642 -16 OFFCURVE",
"714 -5 OFFCURVE",
"774 18 CURVE SMOOTH",
"893 63 OFFCURVE",
"958 145 OFFCURVE",
"958 242 CURVE SMOOTH",
"958 323 OFFCURVE",
"920 389 OFFCURVE",
"844 440 CURVE",
"916 428 OFFCURVE",
"1028 384 OFFCURVE",
"1079 356 CURVE",
"1139 475 LINE",
"1043 522 OFFCURVE",
"893 550 OFFCURVE",
"690 559 CURVE",
"623 600 LINE",
"833 648 OFFCURVE",
"938 734 OFFCURVE",
"938 858 CURVE SMOOTH",
"938 1013 OFFCURVE",
"791 1112 OFFCURVE",
"582 1112 CURVE SMOOTH",
"359 1112 OFFCURVE",
"215 1011 OFFCURVE",
"215 860 CURVE SMOOTH",
"215 803 OFFCURVE",
"242 748 OFFCURVE",
"295 696 CURVE",
"236 705 OFFCURVE",
"120 751 OFFCURVE",
"72 780 CURVE",
"16 666 LINE",
"120 605 OFFCURVE",
"260 574 OFFCURVE",
"436 571 CURVE",
"502 528 LINE",
"287 488 OFFCURVE",
"168 385 OFFCURVE",
"168 244 CURVE SMOOTH",
"168 81 OFFCURVE",
"310 -16 OFFCURVE",
"557 -16 CURVE SMOOTH"
);
},
{
closed = 1;
nodes = (
"428 117 OFFCURVE",
"342 173 OFFCURVE",
"342 260 CURVE SMOOTH",
"342 367 OFFCURVE",
"442 427 OFFCURVE",
"641 440 CURVE",
"732 395 OFFCURVE",
"793 325 OFFCURVE",
"793 262 CURVE SMOOTH",
"793 167 OFFCURVE",
"711 117 OFFCURVE",
"567 117 CURVE SMOOTH"
);
},
{
closed = 1;
nodes = (
"405 743 OFFCURVE",
"379 794 OFFCURVE",
"379 854 CURVE SMOOTH",
"379 933 OFFCURVE",
"454 981 OFFCURVE",
"573 981 CURVE SMOOTH",
"689 981 OFFCURVE",
"762 934 OFFCURVE",
"762 854 CURVE SMOOTH",
"762 763 OFFCURVE",
"672 709 OFFCURVE",
"492 690 CURVE"
);
}
);
width = 1147;
}
);
note = g73;
},
{
glyphname = g74;
lastChange = "2016-11-10 14:01:58 +0000";
layers = (
{
layerId = "8FACA99C-1A90-46DE-9F50-66410175F95F";
paths = (
{
closed = 1;
nodes = (
"652 -20 OFFCURVE",
"725 -2 OFFCURVE",
"791 33 CURVE SMOOTH",
"922 103 OFFCURVE",
"1001 234 OFFCURVE",
"1001 381 CURVE SMOOTH",
"1001 608 OFFCURVE",
"841 750 OFFCURVE",
"600 750 CURVE SMOOTH",
"479 750 OFFCURVE",
"369 703 OFFCURVE",
"305 616 CURVE",
"316 839 OFFCURVE",
"438 967 OFFCURVE",
"621 967 CURVE SMOOTH",
"714 967 OFFCURVE",
"806 944 OFFCURVE",
"899 899 CURVE",
"948 1040 LINE",
"845 1092 OFFCURVE",
"735 1118 OFFCURVE",
"618 1118 CURVE SMOOTH",
"306 1118 OFFCURVE",
"113 897 OFFCURVE",
"113 549 CURVE SMOOTH",
"113 184 OFFCURVE",
"280 -20 OFFCURVE",
"573 -20 CURVE SMOOTH"
);
},
{
closed = 1;
nodes = (
"424 129 OFFCURVE",
"319 242 OFFCURVE",
"319 393 CURVE SMOOTH",
"319 512 OFFCURVE",
"431 604 OFFCURVE",
"580 604 CURVE SMOOTH",
"725 604 OFFCURVE",
"815 516 OFFCURVE",
"815 371 CURVE SMOOTH",
"815 230 OFFCURVE",
"712 129 OFFCURVE",
"571 129 CURVE SMOOTH"
);
}
);
width = 1092;
}
);
note = g74;
},
{
glyphname = g75;
lastChange = "2016-11-10 14:01:58 +0000";
layers = (
{
layerId = "8FACA99C-1A90-46DE-9F50-66410175F95F";
paths = (
{
closed = 1;
nodes = (
"714 -20 OFFCURVE",
"791 2 OFFCURVE",
"855 45 CURVE SMOOTH",
"982 132 OFFCURVE",
"1053 301 OFFCURVE",
"1053 549 CURVE SMOOTH",
"1053 908 OFFCURVE",
"906 1116 OFFCURVE",
"645 1116 CURVE SMOOTH",
"509 1116 OFFCURVE",
"407 1051 OFFCURVE",
"356 942 CURVE",
"356 1098 LINE",
"174 1098 LINE",
"174 0 LINE",
"356 0 LINE",
"356 141 LINE",
"413 34 OFFCURVE",
"502 -20 OFFCURVE",
"625 -20 CURVE SMOOTH"
);
},
{
closed = 1;
nodes = (
"483 129 OFFCURVE",
"385 209 OFFCURVE",
"356 328 CURVE",
"356 756 LINE",
"391 891 OFFCURVE",
"484 967 OFFCURVE",
"608 967 CURVE SMOOTH",
"661 967 OFFCURVE",
"706 951 OFFCURVE",
"744 920 CURVE SMOOTH",
"820 857 OFFCURVE",
"866 733 OFFCURVE",
"866 549 CURVE SMOOTH",
"866 276 OFFCURVE",
"776 129 OFFCURVE",
"600 129 CURVE SMOOTH"
);
}
);
width = 1165;
}
);
note = g75;
},
{
glyphname = g76;
lastChange = "2016-11-10 14:01:58 +0000";
layers = (
{
layerId = "8FACA99C-1A90-46DE-9F50-66410175F95F";
paths = (
{
closed = 1;
nodes = (
"728 -20 OFFCURVE",
"889 98 OFFCURVE",
"889 303 CURVE SMOOTH",
"889 354 OFFCURVE",
"879 398 OFFCURVE",
"858 435 CURVE SMOOTH",
"817 508 OFFCURVE",
"742 561 OFFCURVE",
"559 629 CURVE SMOOTH",
"437 676 OFFCURVE",
"359 712 OFFCURVE",
"326 739 CURVE SMOOTH",
"293 765 OFFCURVE",
"276 798 OFFCURVE",
"276 838 CURVE SMOOTH",
"276 921 OFFCURVE",
"355 971 OFFCURVE",
"504 971 CURVE SMOOTH",
"593 971 OFFCURVE",
"694 948 OFFCURVE",
"805 901 CURVE",
"866 1044 LINE",
"757 1093 OFFCURVE",
"641 1118 OFFCURVE",
"516 1118 CURVE SMOOTH",
"260 1118 OFFCURVE",
"104 1007 OFFCURVE",
"104 827 CURVE SMOOTH",
"104 726 OFFCURVE",
"142 659 OFFCURVE",
"226 603 CURVE SMOOTH",
"268 574 OFFCURVE",
"341 540 OFFCURVE",
"444 500 CURVE SMOOTH",
"545 461 OFFCURVE",
"616 427 OFFCURVE",
"656 397 CURVE SMOOTH",
"695 367 OFFCURVE",
"715 330 OFFCURVE",
"715 287 CURVE SMOOTH",
"715 188 OFFCURVE",
"636 125 OFFCURVE",
"455 125 CURVE SMOOTH",
"343 125 OFFCURVE",
"227 154 OFFCURVE",
"106 213 CURVE",
"106 49 LINE",
"191 3 OFFCURVE",
"306 -20 OFFCURVE",
"451 -20 CURVE SMOOTH"
);
}
);
width = 981;
}
);
note = g76;
},
{
glyphname = g77;
lastChange = "2016-11-10 14:01:58 +0000";
layers = (
{
layerId = "8FACA99C-1A90-46DE-9F50-66410175F95F";
paths = (
{
closed = 1;
nodes = (
"705 0 LINE",
"705 250 LINE",
"961 278 OFFCURVE",
"1108 402 OFFCURVE",
"1108 590 CURVE SMOOTH",
"1108 737 OFFCURVE",
"1024 840 OFFCURVE",
"864 883 CURVE",
"805 745 LINE",
"892 722 OFFCURVE",
"930 665 OFFCURVE",
"930 594 CURVE SMOOTH",
"930 495 OFFCURVE",
"845 419 OFFCURVE",
"705 399 CURVE",
"705 1098 LINE",
"524 1098 LINE",
"524 756 LINE",
"496 835 OFFCURVE",
"420 874 OFFCURVE",
"340 874 CURVE SMOOTH",
"185 874 OFFCURVE",
"82 770 OFFCURVE",
"82 602 CURVE SMOOTH",
"82 397 OFFCURVE",
"249 265 OFFCURVE",
"524 250 CURVE",
"524 0 LINE"
);
},
{
closed = 1;
nodes = (
"352 408 OFFCURVE",
"266 479 OFFCURVE",
"266 606 CURVE SMOOTH",
"266 678 OFFCURVE",
"302 729 OFFCURVE",
"377 729 CURVE SMOOTH",
"404 729 OFFCURVE",
"429 719 OFFCURVE",
"452 700 CURVE SMOOTH",
"497 661 OFFCURVE",
"524 584 OFFCURVE",
"524 485 CURVE SMOOTH",
"524 393 LINE"
);
}
);
width = 1190;
}
);
note = g77;
},
{
glyphname = g78;
lastChange = "2016-11-10 14:01:58 +0000";
layers = (
{
layerId = "8FACA99C-1A90-46DE-9F50-66410175F95F";
paths = (
{
closed = 1;
nodes = (
"879 -18 OFFCURVE",
"1028 133 OFFCURVE",
"1028 428 CURVE",
"854 428 LINE",
"854 228 OFFCURVE",
"775 131 OFFCURVE",
"596 131 CURVE SMOOTH",
"429 131 OFFCURVE",
"352 221 OFFCURVE",
"352 420 CURVE SMOOTH",
"352 1098 LINE",
"174 1098 LINE",
"174 393 LINE SMOOTH",
"174 119 OFFCURVE",
"312 -18 OFFCURVE",
"588 -18 CURVE SMOOTH"
);
}
);
width = 1059;
}
);
note = g78;
},
{
glyphname = g79;
lastChange = "2016-11-10 14:01:58 +0000";
layers = (
{
layerId = "8FACA99C-1A90-46DE-9F50-66410175F95F";
paths = (
{
closed = 1;
nodes = (
"678 -20 OFFCURVE",
"870 192 OFFCURVE",
"870 557 CURVE SMOOTH",
"870 926 OFFCURVE",
"706 1118 OFFCURVE",
"375 1118 CURVE SMOOTH",
"258 1118 OFFCURVE",
"139 1095 OFFCURVE",
"68 1059 CURVE",
"109 907 LINE",
"180 943 OFFCURVE",
"261 961 OFFCURVE",
"354 961 CURVE SMOOTH",
"574 961 OFFCURVE",
"684 820 OFFCURVE",
"684 537 CURVE SMOOTH",
"684 280 OFFCURVE",
"572 135 OFFCURVE",
"365 135 CURVE SMOOTH",
"245 135 OFFCURVE",
"159 166 OFFCURVE",
"80 205 CURVE",
"80 45 LINE",
"172 -4 OFFCURVE",
"245 -20 OFFCURVE",
"350 -20 CURVE SMOOTH"
);
}
);
width = 983;
}
);
note = g79;
},
{
glyphname = g80;
lastChange = "2016-11-10 14:01:58 +0000";
layers = (
{
layerId = "8FACA99C-1A90-46DE-9F50-66410175F95F";
paths = (
{
closed = 1;
nodes = (
"950 0 LINE",
"950 821 LINE",
"776 821 LINE",
"328 520 LINE",
"328 1096 LINE",
"143 1096 LINE",
"143 324 LINE",
"315 324 LINE",
"766 618 LINE",
"766 0 LINE"
);
}
);
width = 1094;
}
);
note = g80;
},
{
glyphname = g81;
lastChange = "2016-11-10 14:01:58 +0000";
layers = (
{
layerId = "8FACA99C-1A90-46DE-9F50-66410175F95F";
paths = (
{
closed = 1;
nodes = (
"362 0 LINE",
"885 858 LINE",
"878 767 OFFCURVE",
"874 681 OFFCURVE",
"874 602 CURVE SMOOTH",
"874 0 LINE",
"1040 0 LINE",
"1040 1098 LINE",
"852 1098 LINE",
"338 250 LINE",
"338 270 LINE",
"341 350 LINE",
"344 489 LINE",
"344 1098 LINE",
"174 1098 LINE",
"174 0 LINE"
);
}
);
width = 1214;
}
);
note = g81;
},
{
glyphname = g82;
lastChange = "2016-11-10 14:01:58 +0000";
layers = (
{
layerId = "8FACA99C-1A90-46DE-9F50-66410175F95F";
paths = (
{
closed = 1;
nodes = (
"492 0 LINE",
"659 260 LINE",
"924 0 LINE",
"1090 0 LINE",
"1090 578 LINE",
"1257 492 LINE",
"1341 633 LINE",
"1090 762 LINE",
"1090 1098 LINE",
"909 1098 LINE",
"909 854 LINE",
"723 950 LINE",
"637 811 LINE",
"909 670 LINE",
"909 238 LINE",
"707 444 LINE",
"594 444 LINE",
"420 182 LINE",
"145 461 LINE",
"20 344 LINE",
"365 0 LINE"
);
}
);
width = 1372;
}
);
note = g82;
},
{
glyphname = g83;
lastChange = "2016-11-10 14:01:58 +0000";
layers = (
{
layerId = "8FACA99C-1A90-46DE-9F50-66410175F95F";
paths = (
{
closed = 1;
nodes = (
"936 -20 OFFCURVE",
"1128 192 OFFCURVE",
"1128 551 CURVE SMOOTH",
"1128 900 OFFCURVE",
"932 1118 OFFCURVE",
"623 1118 CURVE SMOOTH",
"300 1118 OFFCURVE",
"113 908 OFFCURVE",
"113 551 CURVE SMOOTH",
"113 436 OFFCURVE",
"134 336 OFFCURVE",
"175 249 CURVE SMOOTH",
"258 76 OFFCURVE",
"417 -20 OFFCURVE",
"616 -20 CURVE SMOOTH"
);
},
{
closed = 1;
nodes = (
"392 156 OFFCURVE",
"299 298 OFFCURVE",
"299 551 CURVE SMOOTH",
"299 802 OFFCURVE",
"390 940 OFFCURVE",
"565 963 CURVE",
"565 678 LINE",
"432 778 LINE",
"385 625 LINE",
"565 487 LINE",
"565 133 LINE"
);
},
{
closed = 1;
nodes = (
"676 406 LINE",
"801 311 LINE",
"848 465 LINE",
"676 594 LINE",
"676 963 LINE",
"849 938 OFFCURVE",
"942 796 OFFCURVE",
"942 551 CURVE SMOOTH",
"942 312 OFFCURVE",
"857 158 OFFCURVE",
"676 133 CURVE"
);
}
